<?xml version="1.0" encoding="UTF-8" standalone="no"?>
<!-- Uploaded to: SVG Repo, www.svgrepo.com, Generator: SVG Repo Mixer Tools -->

<svg
   width="799.98627"
   height="180.72064"
   viewBox="0 0 15.999725 3.6144128"
   fill="none"
   version="1.1"
   id="svg3"
   xmlns="http://www.w3.org/2000/svg"
   xmlns:svg="http://www.w3.org/2000/svg">
  <defs
     id="defs3" />
  <g
     fill="#ff9900"
     fill-rule="evenodd"
     clip-rule="evenodd"
     id="g3"
     transform="translate(-6.9726688e-5,-10.184587)">
    <path
       d="m 14.465,11.813 c -1.75,1.297 -4.294,1.986 -6.481,1.986 -3.065,0 -5.827,-1.137 -7.913,-3.027 -0.165,-0.15 -0.016,-0.353 0.18,-0.235 2.257,1.313 5.04,2.109 7.92,2.109 1.941,0 4.075,-0.406 6.039,-1.239 0.293,-0.133 0.543,0.192 0.255,0.406 z"
       id="path2" />
    <path
       d="m 15.194,10.98 c -0.223,-0.287 -1.479,-0.138 -2.048,-0.069 -0.17,0.022 -0.197,-0.128 -0.043,-0.24 1,-0.705 2.645,-0.502 2.836,-0.267 0.192,0.24 -0.053,1.89 -0.99,2.68 -0.143,0.123 -0.281,0.06 -0.218,-0.1 0.213,-0.53 0.687,-1.72 0.463,-2.003 z"
       id="path3" />
  </g>
</svg>
