<?xml version="1.0" encoding="UTF-8" standalone="no"?>
<!-- Created with Inkscape (http://www.inkscape.org/) -->

<svg
   width="711.883"
   height="786.91284"
   viewBox="0 0 188.35239 208.20402"
   version="1.1"
   id="svg5"
   xml:space="preserve"
   xmlns="http://www.w3.org/2000/svg"
   xmlns:svg="http://www.w3.org/2000/svg"><defs
     id="defs2" /><g
     id="layer1"
     transform="translate(-100.11818,-181.64799)"><path
       style="fill:#5c6bc0;fill-opacity:1;stroke-width:0.264583"
       d="m 191.76837,389.61615 c -20.30161,-10.24115 -39.82962,-22.15702 -59.82105,-33.06673 -9.65219,-5.70537 -19.93199,-10.51869 -29.07842,-16.97555 -5.171271,-8.08705 -1.72323,-18.86834 -2.75046,-28.09523 0.0301,-25.12064 0.0703,-50.24128 0.10407,-75.36192 3.66466,-8.50022 14.073,-10.40996 21.04037,-15.45497 23.24095,-12.76861 46.09023,-26.31347 69.57943,-38.59178 10.01934,-1.89558 17.6435,7.13217 26.33149,10.64471 22.07754,12.50719 44.47495,24.4819 66.36153,37.30438 8.34374,6.43277 3.59559,18.64111 4.92264,27.74115 -0.20521,25.90367 0.48238,51.84453 -0.41113,77.72567 -4.0491,8.9388 -15.43756,10.67071 -22.78617,16.21764 -22.37109,12.41663 -44.51714,25.24963 -67.03642,37.39231 -2.04293,0.7509 -4.31977,0.98439 -6.45588,0.52032 z"
       id="path3276" /><path
       id="path3225"
       style="fill:#273493;fill-opacity:1;stroke-width:0.264583"
       d="m 192.60814,285.58376 c -30.50356,17.02108 -60.6951,34.62638 -91.24611,51.57205 3.73043,5.87742 11.39489,7.82296 16.98785,11.64859 23.87173,13.29878 47.58638,26.88466 71.55677,40.00307 8.64564,3.37818 15.7571,-5.23069 23.31551,-8.0906 23.67422,-13.14745 47.39129,-26.26326 70.79203,-39.87282 7.44127,-5.11042 0.78561,-7.81803 -10.35905,-10.48986 -27.05622,-14.83991 -54.30805,-29.39096 -81.047,-44.77043 z" /><path
       id="path5422"
       style="fill:#ffffff;fill-opacity:1;stroke-width:0.264583"
       d="m 194.28194,216.32546 c -3.05107,0 -6.10215,0.10523 -7.80521,0.31523 -13.17391,1.62439 -24.74023,6.40321 -35.32187,14.59445 -3.03049,2.34589 -8.48772,7.74484 -10.95179,10.83448 -7.96916,9.99235 -13.03761,21.84859 -14.87299,34.79271 -0.614,4.33026 -0.61704,13.10455 -0.007,17.59479 3.17909,23.37595 17.45503,43.29474 38.39869,53.57606 12.25434,6.01569 25.29946,8.21967 39.02604,6.5934 h 5.2e-4 c 12.7652,-1.51237 24.73396,-6.58964 35.17356,-14.92157 3.25778,-2.60005 7.63826,-6.94022 10.16527,-10.07174 1.70312,-2.11053 6.52259,-9.12046 6.5164,-9.47797 -0.004,-0.20616 -29.9828,-16.70821 -30.31494,-16.68684 -0.13266,0.009 -0.77712,0.86456 -1.43196,1.90221 -1.61628,2.56113 -6.20716,7.14389 -8.99583,8.97981 -12.29664,8.09549 -26.90283,8.09372 -39.15834,-0.006 -2.70573,-1.78808 -6.79747,-5.78618 -8.71006,-8.51059 -7.78492,-11.08928 -8.44652,-25.65688 -1.70067,-37.44629 4.88923,-8.54469 13.25066,-14.5324 23.2885,-16.67702 2.73863,-0.58512 9.04368,-0.71221 11.99307,-0.24185 8.02597,1.27998 15.74532,5.53351 20.81165,11.46752 0.94833,1.11073 2.09547,2.59205 2.54971,3.2923 0.52671,0.81199 0.97395,1.23413 1.23404,1.16531 0.35782,-0.0947 29.61273,-16.73858 29.86536,-16.99121 0.15913,-0.15913 -2.77789,-4.54969 -4.95371,-7.40472 -2.29586,-3.01256 -7.93706,-8.79708 -10.87789,-11.15436 -10.5682,-8.47116 -22.60298,-13.53704 -36.11562,-15.2032 -1.70306,-0.21 -4.75413,-0.31523 -7.80521,-0.31523 z" /><path
       id="path3274"
       style="fill:#3949ab;fill-opacity:1;stroke-width:0.264583"
       d="m 285.81331,232.40923 c -7.5321,3.7863 -14.68729,8.41188 -22.08272,12.50651 -24.22338,13.9381 -48.4863,27.80805 -72.83066,41.53388 3.68266,-1.98077 7.28118,3.56749 10.99174,4.49901 28.27528,15.69066 56.63718,31.2707 85.10049,46.59085 -0.12994,0.69888 2.06365,-3.16861 1.34916,-4.76232 0,-32.13616 0,-64.27232 0,-96.40848 -0.79292,-1.30953 -1.22688,-3.15205 -2.52801,-3.95945 z" /></g></svg>
