<?xml version="1.0" encoding="UTF-8" standalone="no"?>
<svg
   version="1.1"
   viewBox="0 0 450.64478 494.73291"
   id="svg62"
   width="450.64478"
   height="494.73291"
   xmlns="http://www.w3.org/2000/svg"
   xmlns:svg="http://www.w3.org/2000/svg">
  <defs
     id="defs53">
    <filter
       id="filter15211-9-2"
       style="color-interpolation-filters:sRGB"
       height="1.5791306"
       width="1.864507"
       y="-0.28956535"
       x="-0.43225351">
      <feGaussianBlur
         stdDeviation="0.85991809"
         id="feGaussianBlur10" />
    </filter>
    <radialGradient
       id="radialGradient9615"
       gradientUnits="userSpaceOnUse"
       cx="295.46033"
       cy="255.43805"
       r="31.110001"
       gradientTransform="matrix(0.9362,-0.3864,0.2713,0.6574,-243.20325,147.56871)"
       fx="295.46033"
       fy="255.43805">
      <stop
         stop-color="#b67e07"
         offset="0"
         id="stop32" />
      <stop
         stop-color="#946106"
         offset="1"
         id="stop33" />
    </radialGradient>
    <linearGradient
       id="linearGradient9617"
       y2="157.89999"
       gradientUnits="userSpaceOnUse"
       y1="158.3"
       gradientTransform="translate(-208.70325,0.86869605)"
       x2="313.29999"
       x1="256.89999">
      <stop
         stop-color="#ad780a"
         offset="0"
         id="stop34" />
      <stop
         stop-color="#f5cd31"
         offset="1"
         id="stop40" />
    </linearGradient>
    <linearGradient
       id="linearGradient9623"
       y2="159.8"
       gradientUnits="userSpaceOnUse"
       y1="157"
       x2="243.5"
       x1="243"
       gradientTransform="translate(1.2967605,0.86869605)">
      <stop
         stop-color="#f5ce2d"
         offset="0"
         id="stop41" />
      <stop
         stop-color="#d79b08"
         offset="1"
         id="stop42" />
    </linearGradient>
  </defs>
  <path
     d=""
     style="fill:#020204;filter:url(#filter15211-9-2)"
     id="path37" />
  <path
     d="m 153.93417,352.25152 c -36.57454,1.07999 -67.035516,24.441 -98.759302,39.53261 -27.503828,19.75184 2.730833,54.7795 28.340508,37.03893 24.911184,-10.96646 48.243584,-28.79465 57.148044,-55.53616 3.58842,-7.52748 8.952,-13.949 13.27075,-21.03538 z"
     style="fill:#ffffff;stroke-width:1.01465"
     id="path32" />
  <path
     id="path31"
     style="fill:#020204"
     d="m 219.86389,180.85598 c -2.59057,-0.0154 -5.20783,0.11829 -7.8457,0.4082 -36.73418,1.79605 -64.34434,40.2316 -58.59375,75.70898 0.0963,29.83231 2.19954,59.60398 3.64062,89.38868 -20.71132,28.80642 -36.13052,61.0997 -49.01172,94.03711 -6.0511,16.89244 -25.344107,36.44613 -17.652336,54.33398 H 351.01623 c 6.05923,-14.3307 0.034,-35.21609 -0.18164,-51.10742 -3.86288,-16.32551 -6.05325,-46.49505 -17.26757,-52.59375 -27.55679,14.49721 -21.12331,-31.73262 -24.73633,-47.60352 -5.31599,-30.00971 -14.94252,-59.6797 -13.03711,-90.58984 -4.28111,-38.12944 -37.07112,-71.75081 -75.92969,-71.98242 z" />
  <path
     id="path29"
     style="fill:#fdfdfb;stroke-width:1.00575"
     d="m 257.28967,324.19973 c -21.48232,9.09959 -44.38748,36.9954 -68.91211,20.50976 -4.7015,-9.82083 -23.54832,-21.65645 -19.80078,-1.93554 -13.41693,39.4861 -33.45873,76.20571 -47.84961,115.25585 -6.78639,10.80461 -9.74396,27.21099 -4.35937,36.70313 h 196.78906 c 2.82242,-33.88514 -2.9685,-70.84384 -27.39453,-96.03125 -2.98997,-26.91753 -18.56014,-49.91347 -28.47266,-74.50195 z" />
  <path
     id="path28"
     style="fill:#ffffff;fill-opacity:1"
     d="m 174.28113,248.00738 c 18.78214,6.82211 7.80672,43.20409 -7.78711,18.71039 -11.18621,-26.54272 -0.58691,51.68539 20.82617,23.50836 18.30094,-9.48449 4.2982,-40.99533 -13.03906,-42.21875 z m 6.55468,11.38672 c -13.88779,1.23903 0.85524,8.84816 0,0 z" />
  <path
     id="path27"
     style="fill:#ffffff;fill-opacity:1"
     d="m 241.9862,249.46441 c 20.71855,20.25472 -15.39038,36.99203 -19.89821,9.21583 -1.0795,-16.71025 -12.26097,20.3428 0.2471,24.5282 12.61244,25.57657 51.64025,11.23235 37.14494,-15.78407 -3.07187,-7.96378 -9.13425,-15.32119 -17.49383,-17.95996 z" />
  <path
     d="m 234.13855,250.14019 c 2.01287,18.50665 21.55429,3.62007 0,0 z"
     style="fill:#ffffff"
     id="path22" />
  <path
     d="m 174.17175,252.6148 c -2.60359,18.30111 16.92336,9.86294 0,0 z"
     style="fill:#ffffff"
     id="path18" />
  <path
     d="m 259.99987,307.90973 c -26.65465,10.36016 -53.62406,42.01484 -84.06789,23.02333 -21.4217,-16.50538 8.73074,18.99973 17.71583,17.8466 23.36465,6.47561 68.98947,-14.25731 66.35206,-40.86993 z"
     style="fill:url(#radialGradient9615)"
     id="path17" />
  <path
     d="m 252.68405,303.00286 c -22.00294,18.23958 -53.78821,31.92542 -82.14459,21.83342 -7.1459,-3.2871 18.60475,15.26415 28.40413,12.64194 20.14107,-3.24942 43.79141,-14.585 54.15681,-32.49858 z"
     style="fill:#604405"
     id="path15" />
  <path
     d="m 207.81237,284.94488 c -28.84622,-5.74989 -62.08113,43.95819 -19.33402,47.59046 24.64391,2.82137 52.43159,-8.11057 64.36644,-30.70783 -15.59256,-4.05908 -28.97256,-14.30361 -45.03242,-16.88263 z m 5,5.20703 c 14.37349,-0.80548 0.82537,9.55691 0,0 z m -21.24218,0.86719 c 3.3523,5.57783 -7.21933,0.73263 0,0 z"
     style="fill:url(#linearGradient9617)"
     id="path14" />
  <path
     d="m 256.10534,304.10699 c -20.55667,12.36544 15.08445,12.59275 0,0 z"
     style="fill:url(#linearGradient9623)"
     id="path11" />
  <path
     d="m 400.64441,223.05426 c 3.49851,30.25502 -2.05698,61.016 -22.32246,83.89278 -9.21535,22.92221 -17.78747,54.59277 -46.4973,58.68458 -13.28204,3.11177 -46.97068,-14.63225 -33.36739,13.25586 10.4659,26.15953 44.60924,19.01594 60.95775,2.89876 27.66875,-24.42102 59.78861,-50.74602 65.38868,-89.73698 2.49889,-24.28532 -3.92677,-53.3912 -24.15928,-68.995 z"
     style="fill:#020204"
     id="path10" />
  <path
     id="path38"
     style="display:inline;fill:#020204;stroke-width:1.00701"
     d="m 147.12487,351.81598 c -45.35331,0.55747 -88.519825,20.78285 -120.393,52.59522 -17.8806626,12.27924 -25.2821231,45.97301 -8.391581,61.08607 18.5447,11.79709 40.335609,13.0809 61.306929,7.39927 20.914502,-10.16887 39.459842,20.83448 57.346392,4.39324 6.73451,-24.31303 -24.84924,-41.63223 -46.278955,-41.39777 -18.156013,0.48274 -33.514325,-3.85031 -29.019478,-25.33031 -6.373689,-30.3418 28.915467,-35.1334 47.839213,-47.20146 10.2736,-5.69516 32.08259,-10.07474 37.59048,-11.54426 z" />
  <path
     d="m 401.73207,227.75086 c -16.65774,44.45698 -35.27851,95.64863 -80.44429,118.32579 -25.60107,3.15857 -12.39745,25.29359 7.0185,19.74856 26.36708,-2.44674 39.63534,-29.75475 49.57909,-51.14806 5.68102,-19.59267 26.6516,-31.61184 27.05222,-52.73337 0.11615,-11.49695 -3.59952,-22.67415 -3.20552,-34.19292 z"
     style="baseline-shift:baseline;display:inline;overflow:visible;vector-effect:none;fill:#ffffff;enable-background:accumulate;stop-color:#000000;stop-opacity:1"
     id="path9" />
  <path
     id="path9485"
     style="color:#000000;fill:#70c809;fill-opacity:1"
     d="m 450.64478,139.1687 a 52.5,52.5 0 0 1 -52.5,52.5 52.5,52.5 0 0 1 -52.5,-52.5 52.5,52.5 0 0 1 52.5,-52.500018 52.5,52.5 0 0 1 52.5,52.500018 z"
     fill="url(#radialGradient9489)" />
  <g
     transform="translate(1626.6449,-1102.8312)"
     id="g54">
    <path
       id="path9495"
       style="color:#000000;fill:#038dcb;fill-opacity:1"
       d="m 459.6,201.9 a 50,50 0 0 1 -50,50 50,50 0 0 1 -50,-50 50,50 0 0 1 50,-50 50,50 0 0 1 50,50 z"
       transform="matrix(1.05,0,0,1.05,-1920,948)"
       fill="url(#radialGradient9499)" />
  </g>
  <g
     transform="translate(1626.6449,-1164.8312)"
     id="g55">
    <path
       id="path9505"
       style="color:#000000;fill:#c6006e;fill-opacity:1"
       d="m -1500,1458 a 52.5,52.5 0 0 1 -52.5,52.5 52.5,52.5 0 0 1 -52.5,-52.5 52.5,52.5 0 0 1 52.5,-52.5 52.5,52.5 0 0 1 52.5,52.5 z"
       fill="url(#radialGradient8424)" />
  </g>
</svg>
