<?xml version="1.0" encoding="UTF-8" standalone="no"?>
<!-- Created with Inkscape (http://www.inkscape.org/) -->

<svg
   version="1.1"
   id="svg1"
   width="171.17715"
   height="170.83134"
   viewBox="0 0 171.17716 170.83134"
   xml:space="preserve"
   xmlns="http://www.w3.org/2000/svg"
   xmlns:svg="http://www.w3.org/2000/svg"><defs
     id="defs1" /><g
     id="g1"
     transform="translate(-0.32012269,-0.34518245)"><path
       style="fill:#2867b2;fill-opacity:1"
       d="M 0.47999999,156.93025 V 9.7268079 C 2.418442,4.4851688 7.3284363,-0.54910655 13.303797,0.48000001 H 162.4 c 5.50161,2.01695359 9.94404,7.58491789 8.96,13.59357999 V 161.7932 c -1.93844,5.24268 -6.84844,10.27308 -12.8238,9.24985 -49.4708,-0.0681 -98.9468,0.35367 -148.413464,-0.19066 -4.848322,-0.53043 -10.86330691,-6.49571 -9.64273601,-13.92214 z M 51.199999,64.320001 H 25.6 V 146.24 H 51.199999 Z M 92.565048,122.48 c 0.49188,-9.64585 -1.014591,-19.63592 1.585282,-29.012634 2.514682,-8.053905 12.47775,-10.41706 19.55069,-7.440536 8.45459,4.606515 6.53905,15.60146 6.89607,23.61761 0.0508,12.19844 0.0299,24.39704 0.0429,36.59556 h 25.63798 c -0.27048,-19.50903 0.27239,-39.05431 -0.72478,-58.534216 -1.04778,-11.249266 -8.49906,-22.636899 -20.28222,-24.517989 -11.52463,-2.863718 -25.18011,-0.152255 -32.222891,10.116591 -2.382255,3.602978 -1.497972,-0.905958 -1.52809,-4.287684 -0.03012,-3.381726 -0.610226,-4.719161 -4.346772,-4.696701 H 66.879989 V 146.24 h 25.566103 c 0.03964,-7.92 0.118956,-23.76 0.118956,-23.76 z M 42.850893,52.513742 c 11.5589,-2.971354 13.499251,-18.453957 4.823316,-25.545132 -8.675935,-7.091175 -23.021323,-0.281787 -23.920567,9.866179 -0.899244,10.147966 7.538351,18.650307 19.097251,15.678953 z"
       id="path1" /></g></svg>
