<?xml version="1.0" encoding="UTF-8" standalone="no"?>
<!-- Uploaded to: SVG Repo, www.svgrepo.com, Generator: SVG Repo Mixer Tools -->

<svg
   width="288.35608"
   height="295.88818"
   viewBox="0 0 5.7671214 5.9177638"
   fill="none"
   version="1.1"
   id="svg8"
   xmlns="http://www.w3.org/2000/svg"
   xmlns:svg="http://www.w3.org/2000/svg">
  <defs
     id="defs8" />
  <path
     fill="#202020"
     d="m 5.7484612,5.545 c -0.464,-0.586 -0.918,-1.142 -0.91,-1.963 0.014,-1.254 0.138,-3.579 -2.068,-3.582 -0.09,0 -0.183,0.004 -0.28,0.012 -2.466,0.198 -1.812,2.803 -1.849,3.675 -0.045,0.638 -0.174,1.14 -0.613,1.764 -0.515,0.613 6.135,0.584 5.72,0.094 z"
     id="path1" />
  <path
     fill="#d6a312"
     d="m 3.7384612,3.772 c -0.043,-0.084 -0.13,-0.164 -0.28,-0.225 -0.31,-0.133 -0.444,-0.142 -0.617,-0.254 -0.28,-0.181 -0.513,-0.244 -0.706,-0.244 a 0.834,0.834 0 0 0 -0.272,0.047 c -0.236,0.08 -0.392,0.25 -0.49,0.342 -0.02,0.019 -0.044,0.035 -0.104,0.08 -0.06,0.043 -0.15,0.11 -0.28,0.208 -0.117,0.086 -0.154,0.2 -0.114,0.332 0.04,0.132 0.167,0.285 0.4,0.417 h 10e-4 c 0.145,0.085 0.244,0.2 0.358,0.291 a 0.801,0.801 0 0 0 0.189,0.117 c 0.072,0.031 0.156,0.052 0.26,0.058 0.248,0.015 0.43,-0.06 0.59,-0.151 0.16,-0.092 0.296,-0.204 0.452,-0.255 h 10e-4 c 0.32,-0.1 0.548,-0.301 0.62,-0.493 a 0.324,0.324 0 0 0 -0.008,-0.27 z"
     id="path3" />
  <path
     fill="#202020"
     d="m 2.9264612,4.244 c -0.255,0.133 -0.552,0.294 -0.869,0.294 -0.316,0 -0.566,-0.146 -0.745,-0.289 -0.09,-0.07 -0.163,-0.142 -0.218,-0.193 -0.096,-0.075 -0.084,-0.181 -0.045,-0.178 0.066,0.008 0.076,0.095 0.117,0.134 0.056,0.052 0.126,0.12 0.211,0.187 0.17,0.135 0.397,0.266 0.68,0.266 0.284,0 0.614,-0.166 0.816,-0.28 0.115,-0.064 0.26,-0.179 0.379,-0.266 0.09,-0.067 0.087,-0.147 0.162,-0.138 0.075,0.009 0.02,0.089 -0.085,0.18 -0.105,0.092 -0.27,0.214 -0.403,0.283 z"
     id="path4" />
  <path
     fill="#ffffff"
     d="M 0.519533,5.7524522 C 0.0947747,5.6762315 1.0294993,4.9521605 1.0554612,4.456 c 0.029,0.02 0.125,0.086 0.169,0.11 0.126,0.075 0.221,0.184 0.344,0.283 0.1604,0.1353723 0.3652142,0.2066121 0.575,0.2 0.24,0 0.427,-0.079 0.582,-0.168 0.17,-0.096 0.304,-0.204 0.433,-0.245 0.27,-0.085 0.486,-0.235 0.608,-0.41 C 3.8777205,4.6657392 4.9366541,5.6737078 4.684714,5.7754154 4.0767155,6.0208629 1.3739673,5.905776 0.519533,5.7524522 Z"
     id="path5" />
  <path
     fill="#ffffff"
     d="m 3.7664612,2.817 a 1.05,1.05 0 0 1 -0.215,0.656 4.119,4.119 0 0 0 -0.218,-0.09 l -0.127,-0.045 c 0.029,-0.035 0.085,-0.075 0.107,-0.127 a 0.669,0.669 0 0 0 0.05,-0.243 l 10e-4,-0.01 a 0.673,0.673 0 0 0 -0.035,-0.236 0.434,0.434 0 0 0 -0.108,-0.184 0.223,0.223 0 0 0 -0.156,-0.07 h -0.007 a 0.228,0.228 0 0 0 -0.151,0.06 0.434,0.434 0 0 0 -0.122,0.175 0.676,0.676 0 0 0 -0.05,0.243 v 0.01 a 0.718,0.718 0 0 0 0.009,0.14 1.773,1.773 0 0 0 -0.354,-0.12 1.196,1.196 0 0 1 -0.01,-0.133 V 2.83 a 1.035,1.035 0 0 1 0.088,-0.447 0.793,0.793 0 0 1 0.25,-0.328 0.554,0.554 0 0 1 0.346,-0.123 h 0.006 c 0.125,0 0.232,0.036 0.342,0.116 a 0.78,0.78 0 0 1 0.257,0.324 c 0.063,0.138 0.094,0.273 0.097,0.433 l 10e-4,0.012 z m -1.89,0.164 a 1.05,1.05 0 0 0 -0.277,0.125 0.623,0.623 0 0 0 0.002,-0.15 V 2.948 a 0.651,0.651 0 0 0 -0.048,-0.192 0.37,0.37 0 0 0 -0.096,-0.141 0.158,0.158 0 0 0 -0.119,-0.045 c -0.042,0.004 -0.077,0.024 -0.11,0.065 a 0.372,0.372 0 0 0 -0.07,0.156 0.626,0.626 0 0 0 -0.013,0.205 v 0.008 a 0.634,0.634 0 0 0 0.048,0.193 0.367,0.367 0 0 0 0.116,0.156 l -0.102,0.08 -0.078,0.056 a 0.706,0.706 0 0 1 -0.16,-0.24 c -0.053,-0.12 -0.082,-0.24 -0.09,-0.381 V 2.867 a 1.071,1.071 0 0 1 0.045,-0.39 0.668,0.668 0 0 1 0.167,-0.292 0.359,0.359 0 0 1 0.264,-0.118 c 0.084,0 0.158,0.028 0.235,0.09 a 0.68,0.68 0 0 1 0.199,0.271 c 0.053,0.12 0.08,0.24 0.089,0.382 v 10e-4 c 0.003,0.06 0.003,0.115 -0.002,0.17 z"
     id="path7" />
  <path
     fill="#202020"
     d="m 2.2944612,3.319 c 0.01,0.034 0.065,0.029 0.097,0.045 0.027,0.014 0.05,0.045 0.08,0.046 0.03,10e-4 0.076,-0.01 0.08,-0.04 0.005,-0.038 -0.052,-0.063 -0.088,-0.077 -0.047,-0.019 -0.107,-0.028 -0.151,-0.003 -0.01,0.005 -0.021,0.018 -0.018,0.03 z m -0.322,0 c -0.01,0.034 -0.065,0.029 -0.096,0.045 -0.028,0.014 -0.05,0.045 -0.081,0.046 -0.03,10e-4 -0.076,-0.01 -0.08,-0.04 -0.005,-0.038 0.052,-0.063 0.088,-0.077 0.047,-0.019 0.108,-0.028 0.152,-0.003 0.01,0.005 0.02,0.018 0.017,0.03 z"
     id="path8" />
</svg>
