<?xml version="1.0" encoding="UTF-8" standalone="no"?>
<!-- Uploaded to: SVG Repo, www.svgrepo.com, Generator: SVG Repo Mixer Tools -->

<svg
   width="800"
   height="800"
   viewBox="0 0 256 256"
   version="1.1"
   preserveAspectRatio="xMidYMid"
   id="svg7"
   sodipodi:docname="lua.svg"
   inkscape:export-filename="lua_SIMPLE.png"
   inkscape:export-xdpi="96"
   inkscape:export-ydpi="96"
   xmlns:inkscape="http://www.inkscape.org/namespaces/inkscape"
   xmlns:sodipodi="http://sodipodi.sourceforge.net/DTD/sodipodi-0.dtd"
   xmlns="http://www.w3.org/2000/svg"
   xmlns:svg="http://www.w3.org/2000/svg">
  <defs
     id="defs7" />
  <sodipodi:namedview
     id="namedview7"
     pagecolor="#505050"
     bordercolor="#ffffff"
     borderopacity="1"
     inkscape:showpageshadow="0"
     inkscape:pageopacity="0"
     inkscape:pagecheckerboard="1"
     inkscape:deskcolor="#505050">
    <inkscape:page
       x="0"
       y="0"
       width="256"
       height="256"
       id="page2"
       margin="0"
       bleed="0" />
  </sodipodi:namedview>
  <g
     id="g7">
    <path
       d="m 225.84958,128.02379 c 0,-54.023841 -43.84547,-97.869045 -97.86904,-97.869045 -54.023573,0 -97.869047,43.845204 -97.869047,97.869045 0,54.02357 43.845474,97.86904 97.869047,97.86904 54.02357,0 97.86904,-43.84547 97.86904,-97.86904"
       fill="#00007d"
       id="path1" />
    <path
       d="m 197.19488,87.474686 c 0,-15.82307 -12.84217,-28.665241 -28.66524,-28.665241 -15.82307,0 -28.66524,12.842171 -28.66524,28.665241 0,15.823074 12.84217,28.665244 28.66524,28.665244 15.82307,0 28.66524,-12.84217 28.66524,-28.665244"
       fill="#ffffff"
       id="path2" />
    <path
       d="m 254.51509,30.154475 c 0,-15.823071 -12.84217,-28.6652416 -28.66524,-28.6652416 -15.82307,0 -28.66524,12.8421706 -28.66524,28.6652416 0,15.823071 12.84217,28.665242 28.66524,28.665242 15.82307,0 28.66524,-12.842171 28.66524,-28.665242"
       fill="#00007d"
       id="path3" />
    <path
       d="m 132.53204,255.92566 -0.10246,-2.93467 c 3.62888,-0.12652 7.28722,-0.41252 10.87311,-0.85072 l 0.35602,2.91439 c -3.66969,0.44821 -7.41346,0.74124 -11.12667,0.871 z m -11.16155,-0.0906 c -3.70727,-0.18977 -7.44589,-0.5439 -11.1118,-1.05293 l 0.40359,-2.90818 c 3.58211,0.49714 7.23532,0.84315 10.85797,1.0286 z m 33.29919,-2.61704 -0.60931,-2.87223 c 3.5448,-0.75205 7.0969,-1.67062 10.55817,-2.73003 l 0.85964,2.80735 c -3.54345,1.08482 -7.17989,2.02475 -10.8085,2.79491 z m -55.390069,-0.45388 c -3.612114,-0.82909 -7.232608,-1.8293 -10.76065,-2.97333 l 0.905326,-2.79302 c 3.446674,1.11753 6.983637,2.09477 10.51195,2.90467 z m 76.719709,-6.07425 -1.10266,-2.72112 c 3.35314,-1.35812 6.68925,-2.88331 9.91642,-4.53285 l 1.33622,2.61461 c -3.30313,1.68819 -6.71817,3.24933 -10.14998,4.63936 z m -97.94419,-0.80882 c -3.411802,-1.44869 -6.802788,-3.06741 -10.079155,-4.81129 l 1.37975,-2.5919 c 3.200676,1.7036 6.513808,3.28529 9.846944,4.70045 z m 117.8019,-9.34062 -1.55952,-2.48783 c 3.06795,-1.92338 6.0894,-4.00571 8.98136,-6.18941 l 1.76929,2.3432 c -2.95927,2.23479 -6.05155,4.36551 -9.19113,6.33404 z M 58.356917,235.39727 c -3.106062,-2.01934 -6.163734,-4.2017 -9.088136,-6.48704 l 1.80795,-2.31374 c 2.85763,2.23345 5.845288,4.36633 8.880523,6.33945 z M 213.65619,223.09846 211.69064,220.918 c 2.69192,-2.427 5.3095,-5.00025 7.77948,-7.64891 l 2.14748,2.00258 c -2.5281,2.71003 -5.2065,5.34356 -7.96141,7.82679 z M 40.77834,221.65978 c -2.712465,-2.52757 -5.347345,-5.20462 -7.830843,-7.95736 l 2.17992,-1.96663 c 2.426999,2.68976 5.001597,5.30598 7.652427,7.77596 z m 188.09323,-14.87531 -2.31238,-1.80876 c 2.23398,-2.85601 4.36822,-5.84285 6.34323,-8.87755 l 2.46079,1.60142 c -2.02097,3.10552 -4.20521,6.16238 -6.49164,9.08489 z M 25.835455,205.0979 c -2.237499,-2.95954 -4.370112,-6.05128 -6.338365,-9.1887 l 2.487011,-1.56033 c 1.923379,3.06552 4.007333,6.08642 6.19347,8.97812 z m 215.205435,-17.0144 -2.59135,-1.38084 c 1.70549,-3.20013 3.28853,-6.51218 4.70504,-9.84478 l 2.70247,1.14889 c -1.45058,3.411 -3.07092,6.80144 -4.81616,10.07673 z M 13.982953,186.20526 c -1.689546,-3.30124 -3.252309,-6.7152 -4.6453057,-10.14782 l 2.7208447,-1.10401 c 1.360558,3.35368 2.887367,6.68898 4.537985,9.91371 z m 235.788437,-18.66042 -2.79248,-0.90695 c 1.11861,-3.44316 2.09774,-6.97958 2.91034,-10.5106 l 2.86114,0.65825 c -0.83179,3.61481 -1.83417,7.23477 -2.979,10.7593 z M 5.5992904,165.53711 c -1.086716,-3.54399 -2.0288068,-7.17989 -2.8000507,-10.80687 l 2.8716874,-0.61094 c 0.7536727,3.54318 1.673867,7.09501 2.7354425,10.55736 z m 249.1747696,-19.72984 -2.90818,-0.40495 c 0.49903,-3.58075 0.84694,-7.23369 1.03346,-10.85715 l 2.93252,0.15138 c -0.1914,3.70781 -0.54715,7.44617 -1.0578,11.11072 z M 0.95722915,143.72062 C 0.50713411,140.04903 0.21220697,136.30581 0.0810982,132.59394 l 2.9344034,-0.10353 c 0.1278648,3.62698 0.4160338,7.28505 0.8558564,10.87283 z M 252.99207,123.63638 c -0.12625,-3.62023 -0.41414,-7.27965 -0.85586,-10.87635 l 2.91386,-0.35819 c 0.45226,3.68159 0.74718,7.42698 0.8764,11.13208 z M 3.0982218,121.58135 0.16598099,121.43267 c 0.18787751,-3.70781 0.54011405,-7.44644 1.04724811,-11.11208 l 2.908452,0.40225 c -0.49551,3.58184 -0.8399071,7.23504 -1.0234593,10.85851 z M 250.33529,101.99911 c -0.75367,-3.544538 -1.67279,-7.098261 -2.7322,-10.562776 l 2.80789,-0.85856 c 1.08428,3.545884 2.02475,7.183138 2.796,10.810936 z M 6.0880422,99.995979 3.2260866,99.340435 C 4.0538289,95.726158 5.0524182,92.105394 6.1942809,88.578433 l 2.7932925,0.904245 C 7.8722027,92.928 6.8965913,96.465233 6.0880422,99.995979 Z M 243.96178,81.151459 c -1.35812,-3.360439 -2.88061,-6.700874 -4.52501,-9.928042 l 2.61623,-1.332984 c 1.68306,3.302859 3.24096,6.721689 4.63098,10.161064 z M 12.801892,79.258898 10.098619,78.11271 c 1.447062,-3.412883 3.06416,-6.80468 4.80642,-10.081318 l 2.592439,1.378129 c -1.701981,3.201486 -3.282044,6.515159 -4.695586,9.849377 z M 23.035134,60.008346 20.572722,58.40936 c 2.018535,-3.108224 4.199806,-6.166978 6.482991,-9.091379 l 2.314272,1.806868 c -2.231011,2.85763 -4.362272,5.84664 -6.334851,8.883497 z M 36.45094,42.824448 34.301837,40.824025 c 2.525939,-2.713546 5.20191,-5.349778 7.953301,-7.834627 l 1.967983,2.178838 c -2.688675,2.428621 -5.303822,5.0043 -7.772181,7.656212 z M 52.628139,28.214606 50.856414,25.873301 c 2.957922,-2.238311 6.048304,-4.372275 9.185183,-6.342691 l 1.561951,2.486201 c -3.065512,1.925271 -6.085069,4.010576 -8.975409,6.197795 z m 143.493811,-5.099185 -0.16084,-0.103805 1.59736,-2.464034 0.1549,0.100562 z m -9.56824,-5.627134 c -3.20202,-1.696304 -6.51732,-3.271501 -9.8537,-4.682069 l 1.14322,-2.704085 c 3.41477,1.443278 6.80792,3.05551 10.08483,4.791823 z M 71.082577,16.624051 69.743645,14.011067 c 3.300967,-1.691709 6.714661,-3.256093 10.145386,-4.6499012 l 1.105098,2.7203042 c -3.351519,1.361639 -6.686547,2.89007 -9.911552,4.542581 z M 166.47515,9.0008194 c -3.44775,-1.11483 -6.98634,-2.0907117 -10.51736,-2.9003421 l 0.65636,-2.8616853 c 3.61401,0.8285533 7.23558,1.8274129 10.76443,2.9681943 z M 91.269271,8.4242112 90.407197,5.6174023 C 93.949567,4.5293347 97.5852,3.585622 101.21272,2.8119451 l 0.61229,2.8714171 C 98.281293,6.4391975 94.729732,7.361284 91.269271,8.4242112 Z M 145.22715,4.1276283 c -3.58968,-0.498754 -7.24396,-0.8453136 -10.86229,-1.0296769 l 0.14949,-2.93224074 c 3.70294,0.1886885 7.44346,0.54335798 11.11721,1.05400634 z m -32.64662,-0.2484308 -0.359,-2.91439919 c 3.67024,-0.451717 7.41346,-0.7482661 11.12614,-0.88126716 l 0.10515,2.93413305 c -3.62833,0.1300275 -7.28613,0.4198184 -10.87229,0.8615333 z"
       fill="#929292"
       id="path7" />
  </g>
</svg>
