<?xml version="1.0" encoding="UTF-8" standalone="no"?>
<!-- Uploaded to: SVG Repo, www.svgrepo.com, Generator: SVG Repo Mixer Tools -->

<svg
   width="773.51581"
   height="798.76184"
   viewBox="-4 0 255.26022 263.59141"
   version="1.1"
   preserveAspectRatio="xMidYMid"
   id="svg5"
   xmlns="http://www.w3.org/2000/svg"
   xmlns:svg="http://www.w3.org/2000/svg">
  <defs
     id="defs5" />
  <g
     id="g5"
     transform="translate(-4.2774709,-0.10531619)">
    <path
       d="m 255.00793,158.08562 c 0.17928,-17.60939 -34.08295,2.72381 -26.97379,-16.69755 15.66424,-29.71896 27.9358,-62.793068 25.8359,-96.905038 C 246.71853,15.758795 215.49149,1.503453 188.14692,0.20930567 170.59677,-0.92397685 153.27144,7.6889231 135.80418,2.6662526 119.57607,0.50718188 104.22581,15.276146 88.274207,7.5868676 63.080432,0.84649267 31.188179,1.4973865 13.361257,23.35203 -5.4569032,47.898226 -0.52115774,81.132695 6.8631376,108.94914 c 6.7134644,29.36133 15.0308994,59.99432 35.8864444,82.76942 14.24704,9.59759 82.763508,-3.82232 76.156018,22.49172 -0.69645,17.07542 4.16217,37.72417 20.37894,46.33591 25.24008,11.19932 56.26636,-9.05062 59.83881,-35.64439 2.69381,-14.32915 -2.36299,-37.40995 19.42267,-37.10791 10.09798,-0.84436 20.90043,-2.41495 27.98326,-10.43423 5.65577,-4.49553 10.68181,-11.71489 8.47865,-19.27407"
       fill="#000000"
       id="path1" />
    <path
       d="m 237.90559,160.72248 c -9.34356,3.45761 -34.66981,5.30115 -27.18733,-10.87877 18.27707,-31.136 33.16333,-65.96973 32.5282,-102.730515 C 236.95082,23.803647 211.44749,13.015371 189.31543,11.384869 173.1612,9.2832279 157.5805,18.572547 141.401,14.514842 127.97628,13.310063 113.41615,15.12279 102.49046,23.636548 79.253508,15.145687 51.095176,9.2571527 28.843011,23.535853 9.2577567,39.163898 8.8948594,67.369674 14.075632,89.804939 20.37106,121.15327 27.752636,153.48233 46.526647,180.0212 c 10.785138,11.26599 27.291387,-0.82788 32.038131,-12.29348 5.504405,-12.27592 24.512392,-17.51366 32.473712,-5.49233 0.23593,16.67582 -29.358584,7.65663 -25.930164,23.10651 10.692732,7.31781 27.243804,3.89414 36.768044,-4.41849 8.51707,-12.04627 8.05446,13.93668 8.87342,20.84549 1.12089,15.18036 -3.62424,33.4065 8.78921,45.19703 10.2325,10.67498 27.51117,5.46698 36.96074,-3.57559 7.56732,-7.45507 11.72851,-18.1402 11.53866,-28.73031 4.48829,-10.76207 -0.29859,-24.18768 7.62932,-33.63054 8.52654,-5.15887 19.48313,-0.6814 28.71962,-4.62798 7.49113,-2.39679 18.42018,-7.10949 19.48717,-15.20001 -1.81962,-1.15832 -3.98827,-0.54578 -5.9691,-0.47902"
       fill="#336791"
       id="path2" />
    <path
       d="m 108.07634,81.525062 c -19.059495,-0.256269 10.24505,17.315843 4.53233,1.47104 -1.4382,-0.763543 -2.93375,-1.194976 -4.53233,-1.47104 z"
       fill="#ffffff"
       id="path3" />
    <path
       d="m 196.86045,81.598965 c -7.57505,-9.401285 -18.28817,9.327493 -3.8323,4.870092 1.89894,-0.92252 3.64708,-2.646782 3.8323,-4.870092 z"
       fill="#ffffff"
       id="path4" />
    <path
       d="m 247.80209,160.02542 c -9.20001,-10.76788 -31.82841,7.4707 -35.5865,-6.64681 19.50535,-31.85394 34.8322,-67.966351 34.53076,-105.916988 C 242.82418,24.699533 219.21614,12.27626 198.3862,8.5216228 182.98536,5.9465461 167.02556,7.6490594 152.25201,12.555825 135.59578,8.4818475 116.61513,8.9350086 102.04586,18.919169 77.784414,10.490461 48.182112,4.8900653 25.627349,20.733399 5.1602305,37.606907 4.9502267,67.370806 10.43133,91.174895 c 6.34662,31.721805 14.193959,64.513345 33.258866,91.219255 9.72689,10.46454 28.144961,5.24183 33.365568,-7.2895 3.506848,-10.50515 24.931866,-23.93941 28.145696,-9.615 -6.522021,8.72617 -33.533802,5.41925 -24.636763,21.35889 12.494255,9.83134 30.286823,4.9783 43.148143,-1.60058 0.84774,20.1711 -2.27622,42.06747 7.67016,60.50554 11.23725,15.66124 35.16789,13.19293 48.71541,2.10101 13.9033,-12.7541 11.89493,-33.13602 14.99847,-50.15514 0.9183,-9.60202 -1.67118,-18.71785 12.30761,-15.91517 13.97879,2.80268 31.12895,-4.67778 39.92019,-17.3785 l 0.60865,-2.13969 z m -44.1059,-83.480829 c -3.03089,16.828199 -2.48479,34.043479 -0.18289,50.877089 1.15918,7.57654 -3.45557,17.5902 -8.29108,3.98805 -4.83551,-13.60215 -18.00331,-29.9111 -15.56795,-47.243814 3.62197,-9.596931 15.87689,-8.347415 24.04192,-7.621325 z m -17.6439,-61.786457 c 19.96596,0.04286 43.42372,4.304384 51.6503,26.390997 8.22658,22.086613 -5.2146,51.886259 -14.42827,75.824159 -4.89198,11.24357 -10.64087,22.11567 -17.20437,32.47336 4.3222,-14.59605 6.11404,-30.21893 2.55915,-45.14357 -0.22321,-15.660865 6.86296,-32.884789 -2.84712,-47.137078 -8.78672,-17.459698 -23.14029,-32.476979 -41.17221,-40.392385 7.04447,-1.452905 14.24839,-2.171473 21.44252,-2.015483 z M 66.674106,175.77799 c -5.90362,10.4311 -21.461845,-0.50471 -25.346864,-9.81385 C 26.821536,134.23004 17.19151,99.928459 14.697054,65.055713 14.40172,46.882796 22.786457,25.246353 42.20615,20.575412 59.735592,15.369611 78.318484,19.186507 95.360296,24.410457 75.104152,45.109286 72.892864,76.087193 74.874454,103.44647 c -0.894639,15.07892 -4.809902,33.44781 7.609941,45.11017 7.157252,11.89368 -9.906669,16.79025 -15.810289,27.22135 z M 89.153035,145.78461 C 77.231974,134.56463 84.12287,116.14607 82.088797,102.66529 80.054724,89.184506 91.347881,74.467595 105.38263,77.044827 c 12.79712,1.76993 15.7772,16.75025 15.05052,27.554953 0.45099,12.61509 -3.25764,24.75503 -6.88435,36.72471 -4.00543,13.79458 -15.770081,15.18946 -24.395765,4.46012 z m 1.064794,37.90041 c -1.725109,-9.38397 21.047431,-2.87344 20.230111,-15.52768 10.8361,-13.85644 18.84705,13.33207 3.46314,13.4494 -7.20937,3.8303 -15.91257,4.2725 -23.693251,2.07828 z m 69.798721,64.95247 c -16.43597,6.00097 -29.8141,-12.42874 -28.03077,-27.51746 -1.93965,-19.44499 0.63239,-39.09269 -2.13564,-58.48214 -6.42141,-5.43962 -18.93387,-6.45327 -10.00007,-19.32942 8.9338,-12.87615 9.99607,-32.53895 7.03891,-49.143711 0.74536,-14.693664 -14.72606,-30.006322 -29.443508,-23.177758 -6.802593,4.67956 -19.037385,9.925329 -13.741834,-6.921174 5.295551,-16.846503 18.624642,-44.596761 42.310112,-46.105676 32.7926,-4.005852 65.97999,18.633333 75.89844,49.828634 -13.63401,-0.133458 -33.53244,5.625534 -29.98777,23.205716 1.39696,20.992059 14.55582,38.303119 23.50948,56.581439 10.8369,10.33595 -12.38322,19.02767 -5.80152,31.8556 -1.51358,17.58262 -3.68919,35.23785 -7.37751,52.46681 -3.3191,9.35988 -12.44871,15.87483 -22.23832,16.73914 z m 68.10428,-77.93693 c -7.64596,3.49015 -29.72653,9.43947 -28.25204,-4.03387 9.62976,-6.79231 25.61402,2.46607 37.58538,-1.55322 -2.9486,2.11556 -6.04291,4.04603 -9.33334,5.58709 z"
       fill="#ffffff"
       id="path5" />
  </g>
</svg>
