<svg xmlns="http://www.w3.org/2000/svg" viewBox="0 0 352 112"><title>Kew the Angry Emu</title><defs><radialGradient id="a" cx="117" cy="98.3" r="55.9" gradientTransform="matrix(.974 1.51 -.836 .54 79.6 -130)" gradientUnits="userSpaceOnUse"><stop offset="0"/><stop offset="1" style="stop-opacity:.897"/></radialGradient><linearGradient id="b" x1="143" x2="143" y1="832" y2="879" gradientUnits="userSpaceOnUse"><stop offset="0" style="stop-color:#fff"/><stop offset="1" style="stop-color:#fff;stop-opacity:0"/></linearGradient></defs><g transform="translate(-62.3 -55.9)"><path d="M118 55.9c-30.9 0-55.9 24.9-55.9 55.6s25 55.6 55.9 55.6c10.1 0 19.5-2.65 27.7-7.31l2.91 7.31h22.5l-8.81-21.8c7.22-9.36 11.5-21.1 11.5-33.8 0-30.7-25-55.6-55.8-55.6" style="fill:url(#a)"/><ellipse cx="142" cy="856" rx="35.4" ry="24.6" style="fill:url(#b)" transform="matrix(1.05 0 0 1.29 -31.6 -1017)"/><circle cx="116" cy="856" r="6.57" transform="translate(7.67 -778)"/><path d="m111.343 82 37.224 5.376-1.045 5.401-37.224-5.376z"/><path d="M145 89h6.57v2.9H145z"/><path d="M103 65c-.057 2.19-3.87.283-4.03 2.78-4.22-1.88.329 2.87-.094 3.31h-.03l-.313-.031a5 5 0 0 1-.938-.47c-2.95 2.35-3.02 7.23-6.06 9.94-1.99 4.31-2.48 8.98-3.94 13.5-.718 4.3-1.35 8.6-.28 12.9.32 3.5-.69 8.26 2.5 10.7 4.73 3.88 8.66 8.8 12.6 13.5 6.22 7.65 11.7 15.9 16.6 24.4.323-2.12 1.11 4.26 2.53 4.69-.493-3.19-1.13-8.26-1.44-12.2-1.58-10.3-6.65-19.6-8.56-29.8-.06-.43-.129-.871-.189-1.31v-1.28h-.156c-.626-5.04-.85-10.5 2.81-14.4 3.74-3.77 9.31-4.72 13.8-7.34 1-.59 2.05-1.07 3.12-1.41.01-.002.023.004.031 0 3.12-.962 6.45-.932 9.69-.405.048.008.108.023.156.031.295.05.614.099.906.156 2.37.211 7.14 1.14 8-.5-3.27-2.79-7.99-2.59-12-3.69-.63-.115-1.41-.24-2.19-.312l-3.91-.875-.969-.25v.031l-14-2.72a7 7 0 0 0-.688-.562l13.6 1.69v-.062c.48.107.956.194 1.44.25v.03l9.62 1.78c1.66.62 3.43 1.08 5.09 1.19 2.74.4 6.23 4.49 7.12 4.69-.44-4.31-4.74-6.24-8.31-7.5-4.17-2.03-10.4-1.95-11.1-7.56-.176-.39-.349-.78-.562-1.16l-1.62-2.16.063-.03c-2.22-2.62-5.34-4.52-8.66-5.25-3.29-1.14-6.99-2.27-10.5-2.72-1.18 3.48-2.5-2.76-5.34-.906-2.49.295-2.15.953-4-.625zm17.9 10.2c.902-.024 1.93.142 2.97.5 2.76.954 4.56 2.97 4.03 4.5s-3.21 1.99-5.97 1.03-4.56-2.93-4.03-4.47c.331-.959 1.5-1.52 3-1.56" style="fill:#f60"/><text xml:space="preserve" x="184.894" y="166.374" style="fill:#000;font-family:sans-serif;font-weight:700;letter-spacing:0;line-height:0%;word-spacing:0"><tspan x="184.894" y="166.374" style="fill:#000;font-family:sans-serif;font-size:95.5px;line-height:1.25">EMU</tspan></text></g></svg>