<?xml version="1.0" encoding="UTF-8" standalone="no"?>
<!-- Uploaded to: SVG Repo, www.svgrepo.com, Generator: SVG Repo Mixer Tools -->

<svg
   width="760.77185"
   height="800.6991"
   viewBox="-1.61 0 66.567537 70.061171"
   version="1.1"
   id="svg1"
   xmlns="http://www.w3.org/2000/svg"
   xmlns:svg="http://www.w3.org/2000/svg"
   xmlns:rdf="http://www.w3.org/1999/02/22-rdf-syntax-ns#"
   xmlns:cc="http://creativecommons.org/ns#"
   xmlns:dc="http://purl.org/dc/elements/1.1/">
  <defs
     id="defs1" />
  <metadata
     id="metadata1">
    <rdf:RDF>
      <cc:Work>
        <dc:subject>
                    Data
                </dc:subject>
        <dc:identifier>
                    sql-database-sql-azure
                </dc:identifier>
        <dc:title>
                    SQL Database (SQL Azure)
                </dc:title>
        <dc:format>
                    image/svg+xml
                </dc:format>
        <dc:publisher>
                    Amido Limited
                </dc:publisher>
        <dc:creator>
                    Richard Slater
                </dc:creator>
        <dc:type
           rdf:resource="http://purl.org/dc/dcmitype/StillImage" />
      </cc:Work>
    </rdf:RDF>
  </metadata>
  <path
     d="m 27.762352,69.915591 c -5.700351,-0.9657 -9.612593,-7.30545 -7.798011,-12.8178 1.365256,-5.12468 7.112674,-8.24062 12.195611,-6.96214 2.335602,-5.67143 8.391327,-9.60886 14.564334,-8.96985 7.517326,0.41272 13.841983,7.60292 13.240041,15.13788 -1.423499,3.4262 3.558201,1.763595 4.730525,5.46811 1.172324,3.704515 -1.712433,8.96218 -6.00304,8.21832 -10.30868,0.04997 -20.622826,0.12597 -30.92946,-0.07452 z m 33.351,-1.89876 c 3.022496,-1.3628 3.226259,-6.0581 0.232614,-7.56677 -1.659972,-0.90811 -4.838338,0.37846 -3.249772,-2.577 1.509334,-7.18663 -4.357272,-14.9767 -11.813342,-14.9922 -5.776761,-0.57008 -11.354412,3.54255 -12.963612,9.03628 -2.96584,-0.42877 -7.302206,-0.75081 -9.681088,2.16776 -4.036622,3.80271 -2.734862,11.34349 2.4045,13.51533 3.131205,1.26651 6.651129,0.56424 9.955197,0.77102 8.156907,-0.0049 16.313802,-0.02282 24.470703,-0.03396 0.214945,-0.10678 0.429788,-0.21393 0.6448,-0.32046 z m -45.9938,-6.42576 C 9.6181493,60.741091 3.6184383,59.506111 -0.42159672,55.383611 -2.1891027,53.614191 -1.4147147,51.098931 -1.5734567,48.887531 l 0.064909,-40.7412504 c 2.24622998,-4.36496 7.491732,-5.78254 11.8801347,-6.96123 6.417651,-1.47550004 13.137281,-1.47036004 19.630435,-0.54931004 4.887937,0.99973004 10.269825,2.20838004 13.806274,5.99812004 1.998976,2.96262 0.864606,6.8543904 1.197217,10.2377104 0.0063,7.55442 0.0021,15.10884 0.0033,22.66326 -5.69261,0.24658 -11.076967,3.67179 -13.6874,8.73881 -3.836223,-0.07732 -7.879179,0.90907 -10.420149,4.00511 -2.412416,2.56022 -3.083718,6.13257 -2.892651,9.53095 -0.96706,-0.0026 -1.943832,-0.08722 -2.8891,-0.21863 z m 12.2993,-48.50307 c 3.566232,-0.58602 7.773337,-0.90779 10.366,-3.7041704 1.236669,-3.42584 -4.007903,-4.35528 -6.408526,-5.03044 C 19.356912,2.1009865 5.30446,4.0024075 5.5089536,8.5578014 5.659635,11.914451 14.663365,14.137575 27.418852,13.088001 Z"
     fill="#00bcf2"
     id="path1" />
</svg>
