<svg xmlns="http://www.w3.org/2000/svg" width="799.986" height="180.721" fill="none" viewBox="0 0 16 3.614"><g fill="#f90" fill-rule="evenodd" clip-rule="evenodd"><path d="M14.465 1.628c-1.75 1.297-4.294 1.986-6.481 1.986C4.919 3.614 2.157 2.477.07.587-.094.437.055.234.25.352c2.257 1.313 5.04 2.11 7.92 2.11 1.94 0 4.075-.407 6.039-1.24.293-.133.543.192.255.406"/><path d="M15.194.795c-.223-.287-1.48-.138-2.048-.069-.17.022-.197-.128-.043-.24 1-.705 2.645-.502 2.836-.267.192.24-.053 1.89-.99 2.68-.143.123-.281.06-.218-.1.213-.53.687-1.72.463-2.003z"/></g></svg>