<svg xmlns="http://www.w3.org/2000/svg" xml:space="preserve" width="711.883" height="786.913" viewBox="0 0 188.352 208.204"><path d="M191.768 389.616c-20.301-10.241-39.83-22.157-59.82-33.067-9.653-5.705-19.933-10.518-29.08-16.975-5.17-8.087-1.722-18.868-2.75-28.095.03-25.121.07-50.242.105-75.362 3.664-8.5 14.073-10.41 21.04-15.455 23.24-12.769 46.09-26.314 69.58-38.592 10.019-1.896 17.643 7.132 26.33 10.645 22.078 12.507 44.476 24.482 66.362 37.304 8.344 6.433 3.596 18.641 4.923 27.741-.205 25.904.482 51.845-.411 77.726-4.05 8.939-15.438 10.67-22.786 16.218-22.371 12.416-44.517 25.25-67.037 37.392-2.043.75-4.32.984-6.456.52" style="fill:#5c6bc0;fill-opacity:1;stroke-width:.264583" transform="translate(-100.118 -181.648)"/><path d="M192.608 285.584c-30.503 17.02-60.695 34.626-91.246 51.572 3.73 5.877 11.395 7.823 16.988 11.648 23.872 13.3 47.586 26.885 71.557 40.003 8.645 3.379 15.757-5.23 23.315-8.09 23.674-13.148 47.391-26.263 70.792-39.873 7.441-5.11.786-7.818-10.359-10.49-27.056-14.84-54.308-29.39-81.047-44.77" style="fill:#273493;fill-opacity:1;stroke-width:.264583" transform="translate(-100.118 -181.648)"/><path d="M194.282 216.325c-3.051 0-6.102.106-7.805.316-13.174 1.624-24.74 6.403-35.322 14.594-3.03 2.346-8.488 7.745-10.952 10.835-7.97 9.992-13.038 21.848-14.873 34.792-.614 4.33-.617 13.105-.007 17.595 3.18 23.376 17.455 43.295 38.399 53.576 12.254 6.016 25.3 8.22 39.026 6.594 12.766-1.513 24.734-6.59 35.174-14.922 3.258-2.6 7.638-6.94 10.165-10.072 1.703-2.11 6.523-9.12 6.517-9.478-.004-.206-29.983-16.708-30.315-16.687-.133.01-.777.865-1.432 1.903-1.617 2.56-6.207 7.144-8.996 8.98-12.297 8.095-26.903 8.093-39.159-.007-2.705-1.788-6.797-5.786-8.71-8.51-7.784-11.09-8.446-25.657-1.7-37.446 4.889-8.545 13.25-14.533 23.288-16.677 2.739-.586 9.044-.713 11.993-.242 8.026 1.28 15.746 5.533 20.812 11.467.948 1.111 2.095 2.592 2.55 3.293.526.812.974 1.234 1.234 1.165.358-.095 29.612-16.739 29.865-16.991.16-.16-2.778-4.55-4.954-7.405-2.295-3.013-7.937-8.797-10.878-11.154-10.568-8.472-22.602-13.537-36.115-15.204-1.703-.21-4.754-.315-7.805-.315" style="fill:#fff;fill-opacity:1;stroke-width:.264583" transform="translate(-100.118 -181.648)"/><path d="M285.813 232.41c-7.532 3.786-14.687 8.411-22.082 12.506-24.224 13.938-48.487 27.808-72.831 41.534 3.683-1.981 7.281 3.567 10.992 4.499 28.275 15.69 56.637 31.27 85.1 46.59-.13.7 2.064-3.168 1.35-4.762V236.37c-.794-1.31-1.228-3.152-2.529-3.96" style="fill:#3949ab;fill-opacity:1;stroke-width:.264583" transform="translate(-100.118 -181.648)"/></svg>