<svg id="Layer_1" data-name="Layer 1" xmlns="http://www.w3.org/2000/svg" viewBox="0 0 446 501.27"><defs><style>.cls-1{fill:#6188bd;fill-rule:evenodd;}.cls-2{fill:#0b246d;}.cls-3{fill:#1b3c8b;}.cls-4{fill:#fff;}</style></defs><path class="cls-1" d="M500,426.25a73.73,73.73,0,0,0-64,110.34L563.79,463A73.72,73.72,0,0,0,500,426.25Z" transform="translate(-277 -249.37)"/><path class="cls-1" d="M351.89,500a148.12,148.12,0,0,1,276.36-74.12l89.28-51.41a42.61,42.61,0,0,0-16.14-15.72Q612.34,307.4,523.23,256.11c-16-9.24-31.52-8.9-47.4.47-23.64,13.94-142,81.73-177.22,102.15C284.09,367.14,277,380,277,396.72q0,103.27,0,206.55a44.49,44.49,0,0,0,5.21,21.85l89.3-51.41A147.44,147.44,0,0,1,351.89,500Z" transform="translate(-277 -249.37)"/><path class="cls-2" d="M436,536.59a73.73,73.73,0,0,0,128.29-.43l-63.59-36.83Z" transform="translate(-277 -249.37)"/><path class="cls-2" d="M500,648.11a148,148,0,0,1-128.49-74.4l-89.3,51.41a42.53,42.53,0,0,0,16.38,16.15c35.26,20.42,153.6,88.2,177.23,102.14,15.89,9.38,31.4,9.72,47.41.47q89-51.4,178.18-102.63a42.46,42.46,0,0,0,16.38-16.15l-89.16-51.65A148.05,148.05,0,0,1,500,648.11Z" transform="translate(-277 -249.37)"/><path class="cls-3" d="M723,396.74a44.28,44.28,0,0,0-5.45-22.27L500.68,499.33,717.79,625.1A44.48,44.48,0,0,0,723,603.26S723,465.59,723,396.74ZM649.14,508.32h-17v17h-17v-17h-17v-17h17v-17h17v17h17Zm61.9,0h-17v17h-17v-17h-17v-17h17v-17h17v17h17Z" transform="translate(-277 -249.37)"/><polygon class="cls-4" points="417.08 225.02 400.11 225.02 400.11 241.99 383.14 241.99 383.14 258.95 400.11 258.95 400.11 275.92 417.08 275.92 417.08 258.95 434.04 258.95 434.04 241.99 417.08 241.99 417.08 225.02"/><polygon class="cls-4" points="355.17 225.02 338.21 225.02 338.21 241.99 321.24 241.99 321.24 258.95 338.21 258.95 338.21 275.92 355.17 275.92 355.17 258.95 372.14 258.95 372.14 241.99 355.17 241.99 355.17 225.02"/><path class="cls-4" d="M564.27,536.16a73.75,73.75,0,1,1-.48-73.16l64.46-37.12a148.11,148.11,0,1,0,.38,147.57Z" transform="translate(-277 -249.37)"/></svg>