<svg xmlns="http://www.w3.org/2000/svg" id="Layer_1" data-name="Layer 1" viewBox="0 0 446 501.27"><defs><style>.cls-1{fill:#6188bd;fill-rule:evenodd}.cls-2{fill:#0b246d}.cls-4{fill:#fff}</style></defs><path d="M223 176.88a73.73 73.73 0 0 0-64 110.34l127.79-73.59A73.72 73.72 0 0 0 223 176.88" class="cls-1"/><path d="M74.89 250.63a148.12 148.12 0 0 1 276.36-74.12l89.28-51.41a42.6 42.6 0 0 0-16.14-15.72Q335.34 58.03 246.23 6.74c-16-9.24-31.52-8.9-47.4.47-23.64 13.94-142 81.73-177.22 102.15C7.09 117.77 0 130.63 0 147.35V353.9a44.5 44.5 0 0 0 5.21 21.85l89.3-51.41a147.44 147.44 0 0 1-19.62-73.71" class="cls-1"/><path d="M159 287.22a73.73 73.73 0 0 0 128.29-.43l-63.59-36.83Z" class="cls-2"/><path d="M223 398.74a148 148 0 0 1-128.49-74.4l-89.3 51.41a42.53 42.53 0 0 0 16.38 16.15c35.26 20.42 153.6 88.2 177.23 102.14 15.89 9.38 31.4 9.72 47.41.47q89-51.4 178.18-102.63a42.46 42.46 0 0 0 16.38-16.15l-89.16-51.65A148.05 148.05 0 0 1 223 398.74" class="cls-2"/><path d="M723 396.74a44.3 44.3 0 0 0-5.45-22.27L500.68 499.33 717.79 625.1a44.5 44.5 0 0 0 5.21-21.84s0-137.67 0-206.52m-73.86 111.58h-17v17h-17v-17h-17v-17h17v-17h17v17h17Zm61.9 0h-17v17h-17v-17h-17v-17h17v-17h17v17h17Z" style="fill:#1b3c8b" transform="translate(-277 -249.37)"/><path d="M417.08 225.02h-16.97v16.97h-16.97v16.96h16.97v16.97h16.97v-16.97h16.96v-16.96h-16.96zm-61.91 0h-16.96v16.97h-16.97v16.96h16.97v16.97h16.96v-16.97h16.97v-16.96h-16.97z" class="cls-4"/><path d="M287.27 286.79a73.75 73.75 0 1 1-.48-73.16l64.46-37.12a148.11 148.11 0 1 0 .38 147.57Z" class="cls-4"/></svg>