<svg xmlns="http://www.w3.org/2000/svg" width="450.64" height="494.73"><defs><linearGradient id="b" x1="256.9" x2="313.3" y1="158.3" y2="157.9" gradientTransform="translate(-208.703 .869)" gradientUnits="userSpaceOnUse"><stop offset="0" stop-color="#ad780a"/><stop offset="1" stop-color="#f5cd31"/></linearGradient><linearGradient id="d" x1="243" x2="243.5" y1="157" y2="159.8" gradientTransform="translate(1.297 .869)" gradientUnits="userSpaceOnUse"><stop offset="0" stop-color="#f5ce2d"/><stop offset="1" stop-color="#d79b08"/></linearGradient><radialGradient id="a" cx="295.46" cy="255.44" r="31.11" fx="295.46" fy="255.44" gradientTransform="matrix(.9362 -.3864 .2713 .6574 -243.203 147.569)" gradientUnits="userSpaceOnUse"><stop offset="0" stop-color="#b67e07"/><stop offset="1" stop-color="#946106"/></radialGradient></defs><path fill="#fff" d="M153.93 352.25c-36.57 1.08-67.03 24.44-98.76 39.53-27.5 19.76 2.74 54.78 28.34 37.04 24.92-10.96 48.25-28.8 57.15-55.53 3.6-7.53 8.95-13.95 13.27-21.04"/><path fill="#020204" d="M219.86 180.86a68 68 0 0 0-7.84.4c-36.74 1.8-64.35 40.24-58.6 75.71.1 29.83 2.2 59.6 3.65 89.4-20.72 28.8-36.13 61.1-49.02 94.03-6.05 16.9-25.34 36.45-17.65 54.33h260.62c6.06-14.33.03-35.21-.18-51.1-3.87-16.33-6.06-46.5-17.27-52.6-27.56 14.5-21.13-31.73-24.74-47.6-5.31-30.01-14.94-59.68-13.04-90.6-4.28-38.12-37.07-71.74-75.93-71.97"/><path fill="#fdfdfb" d="M257.29 324.2c-21.48 9.1-44.39 37-68.91 20.51-4.7-9.82-23.55-21.66-19.8-1.94-13.42 39.49-33.46 76.21-47.85 115.26-6.79 10.8-9.75 27.21-4.36 36.7h196.79c2.82-33.88-2.97-70.84-27.4-96.03-2.99-26.92-18.56-49.91-28.47-74.5"/><path fill="#fff" d="M174.28 248c18.78 6.83 7.8 43.21-7.79 18.72-11.18-26.55-.58 51.68 20.83 23.5 18.3-9.48 4.3-40.99-13.04-42.21m6.56 11.38c-13.9 1.24.85 8.85 0 0m61.15-9.93c20.71 20.26-15.4 37-19.9 9.22-1.08-16.71-12.26 20.34.24 24.53 12.62 25.58 51.65 11.23 37.15-15.79-3.07-7.96-9.13-15.32-17.5-17.96"/><path fill="#fff" d="M234.14 250.14c2.01 18.5 21.55 3.62 0 0m-59.97 2.48c-2.6 18.3 16.93 9.86 0 0"/><path fill="url(#a)" d="M260 307.91c-26.65 10.36-53.62 42.02-84.07 23.02-21.42-16.5 8.73 19 17.72 17.85 23.36 6.48 68.99-14.26 66.35-40.87"/><path fill="#604405" d="M252.68 303c-22 18.24-53.78 31.93-82.14 21.84-7.15-3.3 18.6 15.26 28.4 12.64 20.14-3.25 43.8-14.59 54.16-32.5z"/><path fill="url(#b)" d="M207.81 284.95c-28.84-5.75-62.08 43.95-19.33 47.59 24.64 2.82 52.43-8.12 64.37-30.71-15.6-4.06-28.98-14.3-45.04-16.89m5 5.21c14.38-.8.83 9.56 0 0m-21.24.87c3.35 5.58-7.22.73 0 0"/><path fill="url(#d)" d="M256.1 304.1c-20.55 12.37 15.09 12.6 0 0"/><path fill="#020204" d="M400.64 223.05c3.5 30.26-2.05 61.02-22.32 83.9-9.21 22.92-17.79 54.59-46.5 58.68-13.28 3.11-46.97-14.63-33.36 13.26 10.46 26.16 44.6 19.01 60.96 2.9 27.66-24.43 59.78-50.75 65.38-89.74 2.5-24.29-3.92-53.4-24.16-69M147.13 351.82c-45.36.55-88.52 20.78-120.4 52.6-17.88 12.27-25.28 45.96-8.39 61.08 18.55 11.8 40.34 13.08 61.3 7.4 20.92-10.17 39.47 20.83 57.35 4.39 6.74-24.31-24.85-41.63-46.28-41.4-18.15.48-33.51-3.85-29.01-25.33-6.38-30.34 28.91-35.13 47.84-47.2 10.27-5.7 32.08-10.07 37.58-11.54"/><path fill="#fff" d="M401.73 227.75c-16.66 44.46-35.28 95.65-80.44 118.33-25.6 3.16-12.4 25.29 7.02 19.75 26.36-2.45 39.63-29.76 49.58-51.15 5.68-19.6 26.65-31.62 27.05-52.74.11-11.5-3.6-22.67-3.2-34.19" overflow="visible"/><path fill="#70c809" d="M450.65 139.17a52.5 52.5 0 0 1-52.5 52.5 52.5 52.5 0 0 1-52.5-52.5 52.5 52.5 0 0 1 52.5-52.5 52.5 52.5 0 0 1 52.5 52.5" color="#000"/><path fill="#038dcb" d="M189.23 57.16a52.5 52.5 0 0 1-52.5 52.5 52.5 52.5 0 0 1-52.5-52.5 52.5 52.5 0 0 1 52.5-52.5 52.5 52.5 0 0 1 52.5 52.5" color="#000"/><path fill="#c6006e" d="M126.64 293.17a52.5 52.5 0 0 1-52.5 52.5 52.5 52.5 0 0 1-52.5-52.5 52.5 52.5 0 0 1 52.5-52.5 52.5 52.5 0 0 1 52.5 52.5" color="#000"/></svg>