<svg xmlns="http://www.w3.org/2000/svg" xml:space="preserve" width="171.177" height="170.831" viewBox="0 0 171.177 170.831"><path d="M.48 156.93V9.727C2.418 4.485 7.328-.55 13.304.48H162.4c5.502 2.017 9.944 7.585 8.96 13.594v147.72c-1.938 5.242-6.848 10.272-12.824 9.25-49.47-.069-98.947.353-148.413-.192-4.849-.53-10.864-6.495-9.643-13.922M51.2 64.32H25.6v81.92h25.6Zm41.365 58.16c.492-9.646-1.015-19.636 1.585-29.013 2.515-8.054 12.478-10.417 19.551-7.44 8.455 4.606 6.54 15.601 6.896 23.617.05 12.199.03 24.397.043 36.596h25.638c-.27-19.509.272-39.054-.725-58.534-1.048-11.25-8.499-22.637-20.282-24.518-11.525-2.864-25.18-.152-32.223 10.116-2.382 3.603-1.498-.906-1.528-4.287-.03-3.382-.61-4.72-4.347-4.697H66.88v81.92h25.566zM42.851 52.514c11.559-2.972 13.5-18.454 4.823-25.545s-23.021-.282-23.92 9.866 7.538 18.65 19.097 15.679" style="fill:#2867b2;fill-opacity:1" transform="translate(-.32 -.345)"/></svg>