<svg xmlns="http://www.w3.org/2000/svg" width="288.356" height="295.888" fill="none" viewBox="0 0 5.767 5.918"><path fill="#202020" d="M5.748 5.545c-.464-.586-.918-1.142-.91-1.963C4.852 2.328 4.976.003 2.77 0q-.135 0-.28.012C.024.21.678 2.815.641 3.687c-.045.638-.174 1.14-.613 1.764-.515.613 6.135.584 5.72.094"/><path fill="#d6a312" d="M3.738 3.772c-.043-.084-.13-.164-.28-.225-.31-.133-.444-.142-.617-.254-.28-.181-.513-.244-.706-.244a.8.8 0 0 0-.272.047c-.236.08-.392.25-.49.342-.02.019-.044.035-.104.08-.06.043-.15.11-.28.208-.117.086-.154.2-.114.332s.167.285.4.417h.001c.145.085.244.2.358.291a.8.8 0 0 0 .19.117.8.8 0 0 0 .26.058c.247.015.43-.06.59-.151.16-.092.295-.204.451-.255h.001c.32-.1.548-.301.62-.493a.32.32 0 0 0-.008-.27"/><path fill="#202020" d="M2.926 4.244c-.255.133-.552.294-.869.294s-.566-.146-.745-.289c-.09-.07-.163-.142-.218-.193-.096-.075-.084-.181-.045-.178.066.008.076.095.117.134.056.052.126.12.211.187.17.135.397.266.68.266s.614-.166.816-.28c.115-.064.26-.179.38-.266.09-.067.086-.147.161-.138s.02.089-.085.18c-.105.092-.27.214-.403.283"/><path fill="#fff" d="M.52 5.752c-.425-.076.51-.8.535-1.296.03.02.125.086.17.11.125.075.22.184.343.283a.85.85 0 0 0 .575.2c.24 0 .427-.079.582-.168.17-.096.304-.204.433-.245.27-.085.486-.235.608-.41.112.44 1.17 1.448.919 1.55-.608.245-3.311.13-4.165-.024m3.246-2.935a1.05 1.05 0 0 1-.215.656 4 4 0 0 0-.218-.09l-.127-.045c.03-.035.085-.075.107-.127a.7.7 0 0 0 .05-.243l.001-.01a.7.7 0 0 0-.035-.236.43.43 0 0 0-.108-.184.22.22 0 0 0-.156-.07h-.007a.23.23 0 0 0-.15.06.43.43 0 0 0-.123.175.7.7 0 0 0-.05.243v.01a1 1 0 0 0 .01.14 2 2 0 0 0-.355-.12 1 1 0 0 1-.01-.133V2.83a1 1 0 0 1 .088-.447.8.8 0 0 1 .25-.328.55.55 0 0 1 .346-.123h.006c.125 0 .232.036.342.116a.8.8 0 0 1 .257.324c.063.138.094.273.097.433zm-1.89.164a1 1 0 0 0-.277.125.6.6 0 0 0 .002-.15v-.008a.7.7 0 0 0-.048-.192.4.4 0 0 0-.096-.141.16.16 0 0 0-.119-.045.16.16 0 0 0-.11.065.4.4 0 0 0-.07.156.6.6 0 0 0-.013.205v.008a.6.6 0 0 0 .048.193.37.37 0 0 0 .116.156l-.102.08-.078.056a.7.7 0 0 1-.16-.24 1.1 1.1 0 0 1-.09-.381v-.001a1.1 1.1 0 0 1 .045-.39.7.7 0 0 1 .167-.292.36.36 0 0 1 .264-.118.36.36 0 0 1 .235.09.7.7 0 0 1 .2.271c.052.12.08.24.088.382v.001q.005.089-.002.17"/><path fill="#202020" d="M2.294 3.319c.01.034.065.029.097.045.027.014.05.045.08.046s.076-.01.08-.04c.005-.038-.052-.063-.088-.077-.047-.019-.107-.028-.15-.003-.01.005-.022.018-.019.03zm-.322 0c-.01.034-.065.029-.096.045-.028.014-.05.045-.08.046s-.077-.01-.08-.04c-.006-.038.051-.063.087-.077.047-.019.108-.028.152-.003.01.005.02.018.017.03z"/></svg>