<svg xmlns="http://www.w3.org/2000/svg" width="773.516" height="798.762" preserveAspectRatio="xMidYMid" viewBox="-4 0 255.26 263.591"><path d="M250.73 157.98c.18-17.61-34.082 2.724-26.973-16.697 15.664-29.72 27.935-62.793 25.836-96.905-7.152-28.725-38.379-42.98-65.724-44.274-17.55-1.133-34.875 7.48-52.342 2.457C115.299.4 99.948 15.17 83.997 7.48 58.803.742 26.91 1.393 9.084 23.248-9.734 47.793-4.8 81.027 2.586 108.844c6.713 29.361 15.03 59.994 35.886 82.77 14.247 9.597 82.764-3.823 76.156 22.491-.696 17.075 4.162 37.724 20.38 46.336 25.24 11.2 56.265-9.05 59.838-35.645 2.694-14.329-2.363-37.41 19.423-37.107 10.098-.845 20.9-2.415 27.983-10.435 5.656-4.495 10.682-11.715 8.478-19.274"/><path fill="#336791" d="M233.628 160.617c-9.343 3.458-34.67 5.301-27.187-10.879 18.277-31.136 33.163-65.97 32.528-102.73-6.296-23.31-31.799-34.098-53.931-35.728-16.154-2.102-31.735 7.187-47.914 3.13-13.425-1.205-27.985.607-38.911 9.121-23.237-8.49-51.395-14.38-73.647-.1C4.98 39.059 4.617 67.264 9.798 89.7c6.296 31.348 13.677 63.677 32.451 90.216 10.785 11.266 27.292-.828 32.038-12.294 5.505-12.276 24.513-17.513 32.474-5.492.236 16.676-29.359 7.657-25.93 23.107 10.693 7.317 27.244 3.894 36.768-4.419 8.517-12.046 8.054 13.937 8.873 20.846 1.121 15.18-3.624 33.406 8.79 45.197 10.232 10.675 27.51 5.467 36.96-3.576 7.568-7.455 11.729-18.14 11.539-28.73 4.488-10.762-.299-24.188 7.63-33.63 8.526-5.16 19.482-.682 28.719-4.629 7.491-2.397 18.42-7.11 19.487-15.2-1.82-1.158-3.988-.546-5.97-.479"/><path fill="#fff" d="M103.799 81.42c-19.06-.257 10.245 17.316 4.532 1.47-1.438-.763-2.934-1.194-4.532-1.47m88.784.074c-7.575-9.402-18.288 9.327-3.832 4.87 1.899-.923 3.647-2.647 3.832-4.87"/><path fill="#fff" d="M243.525 159.92c-9.2-10.768-31.829 7.47-35.587-6.647 19.505-31.854 34.832-67.966 34.53-105.917-3.921-22.762-27.53-35.185-48.36-38.94-15.4-2.575-31.36-.872-46.133 4.035-16.657-4.074-35.637-3.621-50.207 6.363-24.261-8.429-53.863-14.03-76.418 1.814C.883 37.502.673 67.265 6.154 91.07c6.346 31.721 14.194 64.513 33.259 91.219 9.727 10.464 28.145 5.242 33.365-7.29 3.507-10.505 24.932-23.94 28.146-9.615-6.522 8.727-33.534 5.42-24.637 21.36 12.494 9.83 30.287 4.978 43.148-1.601.848 20.17-2.276 42.067 7.67 60.505 11.238 15.661 35.168 13.193 48.716 2.101 13.903-12.754 11.895-33.136 14.998-50.155.919-9.602-1.67-18.718 12.308-15.915s31.129-4.678 39.92-17.379l.609-2.14zm-44.106-83.48c-3.031 16.827-2.485 34.043-.183 50.876 1.159 7.577-3.456 17.59-8.291 3.988s-18.004-29.91-15.568-47.243c3.622-9.597 15.877-8.348 24.042-7.622m-17.644-61.787c19.966.043 43.424 4.304 51.65 26.39 8.227 22.087-5.214 51.887-14.428 75.825a238 238 0 0 1-17.205 32.473c4.323-14.596 6.115-30.219 2.56-45.143-.224-15.661 6.863-32.885-2.847-47.137-8.787-17.46-23.14-32.477-41.173-40.393 7.045-1.453 14.249-2.171 21.443-2.015M62.397 175.673c-5.904 10.43-21.462-.505-25.347-9.814C22.544 134.125 12.914 99.823 10.42 64.95c-.296-18.173 8.089-39.809 27.509-44.48 17.53-5.206 36.112-1.389 53.154 3.835-20.256 20.699-22.468 51.677-20.486 79.036-.895 15.08-4.81 33.448 7.61 45.11 7.157 11.894-9.907 16.79-15.81 27.222m22.479-29.994c-11.921-11.22-5.03-29.638-7.065-43.119-2.034-13.48 9.26-28.198 23.294-25.62 12.797 1.77 15.777 16.75 15.05 27.554.452 12.616-3.257 24.755-6.884 36.725-4.005 13.795-15.77 15.19-24.395 4.46m1.064 37.9c-1.725-9.383 21.048-2.873 20.23-15.527 10.837-13.856 18.848 13.332 3.464 13.45-7.21 3.83-15.913 4.272-23.694 2.078m69.8 64.953c-16.437 6.001-29.815-12.429-28.032-27.517-1.94-19.445.633-39.093-2.135-58.482-6.422-5.44-18.934-6.454-10-19.33 8.933-12.876 9.996-32.539 7.039-49.144.745-14.693-14.727-30.006-29.444-23.177-6.803 4.68-19.037 9.925-13.742-6.921 5.296-16.847 18.625-44.597 42.31-46.106 32.793-4.006 65.98 18.633 75.899 49.828C184 67.55 164.102 73.31 167.647 90.89c1.397 20.992 14.556 38.303 23.51 56.582 10.836 10.336-12.384 19.027-5.802 31.855-1.514 17.583-3.69 35.238-7.378 52.467-3.319 9.36-12.448 15.875-22.238 16.74m68.103-77.937c-7.646 3.49-29.726 9.44-28.252-4.034 9.63-6.792 25.614 2.466 37.586-1.553-2.949 2.116-6.043 4.046-9.334 5.587"/></svg>