<svg xmlns="http://www.w3.org/2000/svg" width="111.7" height="111.594" viewBox="0 0 111.7 111.594"><title>Kew the Angry Emu</title><defs><radialGradient id="a" cx="117" cy="98.3" r="55.9" gradientTransform="matrix(.974 1.51 -.836 .54 79.6 -130)" gradientUnits="userSpaceOnUse"><stop offset="0"/><stop offset="1" style="stop-opacity:.897"/></radialGradient><linearGradient id="b" x1="143" x2="143" y1="832" y2="879" gradientTransform="matrix(1.05 0 0 1.29 -31.6 -1017)" gradientUnits="userSpaceOnUse"><stop offset="0" style="stop-color:#fff"/><stop offset="1" style="stop-color:#fff;stop-opacity:0"/></linearGradient></defs><path d="M118 55.9c-21.93-.307-43.155 13.684-51.51 33.96-8.696 19.853-4.174 44.547 11.036 59.998 15.17 16.243 40.4 21.746 60.982 13.373 3.193-.516 7.708-5.954 8.36-.507 1.032 1.414.748 4.768 3.005 4.376h21.237l-8.81-21.8c14.226-17.9 15.306-44.724 2.705-63.765-10.02-15.8-28.282-25.801-47.005-25.635" style="fill:url(#a)" transform="translate(-62.1 -55.506)"/><path d="M117.5 55.506C104.502 55.428 91.044 61.543 84.316 73c-6.125 9.642-4.954 23.146 2.281 31.875 10.686-.83 19.538-38.57 40.698-30.274.197 4.483 2.99 5.671 4.07 8.485 3.248 4.437 12.252 1.07 16.572 3.795 2.026.359 5.19 4.014 4.079 5.447-1.54-1.308-2.074-2.175-3.341-.032-3.583 1.49-7.376-.777-11.088-.603-4.813-.393-9.332 1.654-13.405 3.962-10.452 3.01-23.54 8.732-13.034 20.455 1.286 4.668 7.49 2.363 11.061 2.598 12.885-1.156 25.38-9.043 30.517-21.144 3.908-9.884 1.713-21.913-5.717-29.588-7.355-8.31-18.558-12.464-29.509-12.47" style="fill:url(#b);stroke-width:1.16383" transform="translate(-62.1 -55.506)"/><path d="M103 65c-2.315 2.74-8.245 1.318-4.155 6.09-4.49-.309-4.322 7.68-7.666 10.252-2.201 6.98-4.508 14.157-4.418 21.557 1.18 4.493-.381 9.582 2.043 13.714 12.247 11.058 21.933 24.706 30.21 38.917.665-.047 3.174 8.105 2.141 1.992-.797-7.343-1.504-14.753-4.259-21.688-2.234-6.543-4.974-13.535-5.696-20.204-1.088-6.06-.295-13.732 5.913-16.77 5.418-2.249 10.51-5.54 16.223-6.924 4.547-1.63 14.004 3.02 15.748-.664-5.237-2.988-11.55-2.717-17.259-4.34-4.977-1.062-10.13-1.975-15.18-2.987-1.105-1.132 3.55.199 4.952.14 6.877.802 13.543 1.677 20.281 3.419 4.128-.463 9.208 4.631 10.822 4.667-1.719-5.674-8.541-6.684-13.344-8.524-4.991-.537-5.323-5.532-7.828-8.683-3.526-5.096-10.416-6.133-16.063-7.793-3.062-1.436-4.58 1.835-6.802-1.658-1.707-.476-4.939 1.632-5.663-.513m17.9 10.2c4.83-1.406 10.751 7.116 3.053 6.49-3.57.329-9.994-5.754-3.053-6.49" style="fill:#f60" transform="translate(-62.1 -55.506)"/></svg>