<svg xmlns="http://www.w3.org/2000/svg" width="760.772" height="800.699" viewBox="-1.61 0 66.568 70.061"><path fill="#00bcf2" d="M27.762 69.916c-5.7-.966-9.612-7.306-7.798-12.818 1.366-5.125 7.113-8.24 12.196-6.962 2.336-5.672 8.391-9.61 14.564-8.97 7.518.413 13.842 7.603 13.24 15.138-1.423 3.426 3.559 1.763 4.73 5.468 1.173 3.704-1.712 8.962-6.002 8.218-10.309.05-20.623.126-30.93-.074m33.351-1.9c3.023-1.362 3.227-6.057.233-7.566-1.66-.908-4.838.379-3.25-2.577 1.51-7.187-4.357-14.977-11.813-14.992-5.777-.57-11.355 3.542-12.964 9.036-2.966-.429-7.302-.75-9.68 2.168-4.037 3.803-2.736 11.343 2.404 13.515 3.13 1.267 6.65.564 9.955.771 8.157-.005 16.314-.023 24.47-.034zM15.12 61.592c-5.502-.85-11.502-2.085-15.542-6.207-1.767-1.77-.993-4.285-1.151-6.496l.064-40.742c2.247-4.365 7.492-5.782 11.88-6.96C16.79-.29 23.51-.286 30.003.635c4.888 1 10.27 2.208 13.806 5.998 2 2.962.865 6.854 1.198 10.238.006 7.554.002 15.108.003 22.663-5.693.246-11.077 3.672-13.688 8.739-3.836-.078-7.879.909-10.42 4.005-2.412 2.56-3.083 6.132-2.892 9.53a21.5 21.5 0 0 1-2.89-.218m12.299-48.503c3.566-.586 7.773-.908 10.366-3.704 1.237-3.426-4.008-4.355-6.409-5.03C19.356 2.1 5.304 4.001 5.51 8.557c.15 3.356 9.154 5.58 21.91 4.53"/></svg>