<?xml version="1.0" encoding="UTF-8" standalone="no"?>
<!-- Created with Inkscape (http://www.inkscape.org/) -->

<svg
   version="1.1"
   id="svg1"
   width="164.00029"
   height="58.575012"
   viewBox="0 0 164.00029 58.575012"
   xmlns="http://www.w3.org/2000/svg"
   xmlns:svg="http://www.w3.org/2000/svg">
  <defs
     id="defs1" />
  <g
     id="g1"
     transform="translate(-37.999714,-91.922745)">
    <path
       style="fill:#000000"
       d="m 118.93632,149 c -12.1383,-3.36063 -20.994946,-13.59724 -20.9139,-26.1868 -1.391813,-17.60588 14.67258,-37.337014 42.66106,-28.692953 11.61524,3.584817 18.51848,15.711213 18.18323,27.468463 0.7773,20.5645 -19.26463,32.99069 -39.93039,27.41129 z m 18.1844,-34.92411 c -3.51414,-5.52943 -12.25429,-6.50053 -16.37072,-1.09484 -5.36012,6.34516 -3.34686,18.22255 5.63759,20.01895 7.37074,1.65136 17.00688,-6.69103 10.73313,-18.92411 z m -99.121005,36.42186 c 5.098618,-15.81676 9.753126,-32.16248 15.723669,-47.67773 5.721532,-14.668455 27.212931,-14.940553 31.708259,1.6975 5.681063,14.64063 10.498712,30.47134 15.090317,45.48248 -5.466015,-0.0376 -12.88216,0.12217 -18.984918,0 l -2.727086,-8.07013 c -6.416758,0.19004 -12.833516,0.38008 -19.250274,0.57013 -0.714583,2.55211 -1.429167,4.94789 -2.14375,7.5 -5.781289,0.0209 -13.138743,-0.0135 -19.416217,0 z M 73.994349,128 C 72.709465,122.67523 70.905983,116.74187 69.324081,111.5 67.836336,116.60475 66.03974,122.77899 65,128 c 2.663597,0.0566 5.833357,-0.0472 8.994349,0 z M 174.18467,149 C 167.89573,147.44974 163.4581,142.47872 163.48844,136.04455 162.62831,122.05011 163.13617,108.01401 163,94 h 19 v 40 h 20 v 16 c -9.27141,-0.18162 -18.60305,0.20058 -27.81533,-1 z"
       id="path1" />
  </g>
</svg>
