<?xml version="1.0" encoding="UTF-8" standalone="no"?>
<!-- Uploaded to: SVG Repo, www.svgrepo.com, Generator: SVG Repo Mixer Tools -->

<svg
   width="734.23608"
   height="734.02972"
   viewBox="0 0 22.027083 22.020892"
   fill="none"
   version="1.1"
   id="svg1"
   xmlns="http://www.w3.org/2000/svg"
   xmlns:svg="http://www.w3.org/2000/svg">
  <defs
     id="defs1" />
  <path
     d="m 4.0201129,14.013922 c -1.0743375,0.08222 -2.4222513,-0.05359 -2.84776,-1.2346 C 0.89352765,11.595658 1.0681475,10.356369 1.0201129,9.146764 1.0426588,6.9866141 0.96797945,4.8225408 1.0733331,2.665588 1.1924241,1.507371 2.4108537,0.89112759 3.478361,1.0173281 c 2.8785792,0.00304 5.7580209,-0.023697 8.636065,0.015624 1.703843,0.07273 1.953951,1.0580346 1.905687,2.9809699 m 5.113612,16.97275 c 1.176673,0.0091 2.009291,-1.158186 1.879735,-2.273666 3.56e-4,-2.937351 0.03329,-5.876238 -0.0206,-8.812696 0.0091,-1.1766677 -1.158186,-2.0092981 -2.273666,-1.8797355 -2.937351,-3.556e-4 -5.876238,-0.03329 -8.8126961,0.020596 -1.1766643,-0.00908 -2.0092982,1.1581905 -1.8797355,2.2736675 -3.556e-4,2.937351 -0.03329,5.876238 0.020596,8.812696 -0.00908,1.17667 1.1581905,2.009291 2.2736676,1.879735 2.937378,0.0072 5.875592,0.03205 8.812699,-0.0206 z"
     stroke="#000000"
     stroke-width="2"
     stroke-linecap="round"
     stroke-linejoin="round"
     id="path1" />
</svg>
