<svg xmlns="http://www.w3.org/2000/svg" width="947.023" height="851.044" viewBox="0 0 947.023 851.044"><path d="M53.072 856.45C2.795 846.836-4.934 788.083 1.143 746.104c.57-110.152-2.417-220.482 2.106-330.515 10.851-60.757 71.53-67.87 87.042-6.538C100.533 512.353 95.998 657.83 96.001 762h753.95c.878-100.996-1.272-242.03 2.15-342.995 8.79-65.866 77.997-72.061 90.044-4.575 6.42 38.126 4.674 344.947.61 397.732-13.677 43.098-62.425 50.713-101.207 45.315-262.825-.28-525.657 1.55-788.476-1.027M292.632 475c49.843.414 90.122.108 132.446 0 .692-108.334 3.134-253.956 2.112-322.944s3.542-144.66 49.503-144.1c45.961.558 45.244 80.45 43.952 150.164s.388 316.88.388 316.88c41.615.575 82.451-.311 132.947 0-72.68 72.724-111.405 92.19-182.48 163.055C399.433 565.938 354.068 534.91 292.632 475" style="fill:#000" transform="translate(.63 -7.952)"/></svg>