<?xml version="1.0" encoding="UTF-8" standalone="no"?>
<svg
   version="1.1"
   viewBox="60 90.4 570.9683 539.73738"
   id="svg43"
   width="570.96832"
   height="539.73737"
   xmlns="http://www.w3.org/2000/svg"
   xmlns:svg="http://www.w3.org/2000/svg">
  <defs
     id="defs29" />
  <g
     id="surface1"
     transform="translate(0.51943714,-0.02758376)">
    <path
       style="fill:#1ea6fa;fill-opacity:1;fill-rule:nonzero;stroke:none"
       d="M 464,140.1 C 349.2,212.9 234.4,285.7 119.6,358.4 94.4,331.4 84.2,291.3 93,255.6 c 10.5,-22.6 36,-30.9 54.9,-45.3 57,-36.6 113.3,-74.4 170.8,-110.1 33.3,-17.7 74.6,-10.1 103.3,12.7 14,9.1 28,18.1 41.9,27.2 z"
       id="path29" />
    <path
       style="fill:#1459d9;fill-opacity:1;fill-rule:nonzero;stroke:none"
       d="m 407.1,103.3 c 53.2,34.3 106.2,68.9 159.3,103.2 -129.1,81.9 -258.2,163.8 -387.3,245.6 -19.9,-31.3 -39.7,-62.5 -59.5,-93.8 96.3,-61.4 193.1,-122 289,-183.9 22.2,-17.4 21.5,-54.6 -1.5,-71 z"
       id="path30" />
    <path
       style="fill:#5e1eca;fill-opacity:1;fill-rule:nonzero;stroke:none"
       d="m 333.6,499 c -51.5,-15.6 -103,-31.3 -154.5,-46.9 111.1,-70.7 222.7,-140.6 333.4,-211.8 29.3,-16.3 10.6,-66.8 -3.8,-71.1 35.3,23.1 71,45.5 106,69.1 21.8,18 13.8,47.5 15.3,72 C 531.2,373.2 432.4,436.1 333.6,499 Z"
       id="path32" />
    <path
       style="fill:#0caeff;fill-opacity:1;fill-rule:nonzero;stroke:none"
       d="m 315.8,630.1 c 76.7,-0.3 153.4,0.6 230,-0.5 50.3,-3.8 89.3,-53 84.2,-102.7 V 272.1 c 1.1,30.2 -29,42.1 -50.1,56 -101,63.6 -202.4,126.7 -303.3,190.7 -45.2,31.3 -21.7,111.2 39.1,111.2 z"
       id="path35" />
    <path
       style="fill:#0282f0;fill-opacity:0;fill-rule:nonzero;stroke:none"
       d="m 315.76953,630.05078 c 76.67347,-0.31178 153.38661,0.63065 230.03472,-0.48401 50.26745,-3.81378 89.31477,-53.01912 84.1645,-102.68506 0,-84.9137 0,-169.82739 0,-254.74109 1.05354,30.21225 -29.00328,42.05301 -50.06918,56.02928 -100.60773,63.26964 -201.39762,126.25927 -301.89138,189.70412 -34.50491,23.03789 -32.75706,79.83586 2.56701,101.42739 10.30905,7.00371 22.74089,10.78001 35.19433,10.74937 z"
       id="path36" />
    <path
       style="fill:#47deff;fill-opacity:1;fill-rule:nonzero;stroke:none"
       d="m 405.4,630 c -77.1,-0.3 -154.2,0.6 -231.2,-0.5 -50.3,-3.8 -89.3,-53 -84.2,-102.7 0,-85 0,-169.9 0,-254.9 -1.1,30.2 29,42 50,56 100.5,63.5 201.2,126.7 301.6,190.3 34.2,22.9 33.6,79.5 -1.7,101.2 -10.1,6.9 -22.3,10.6 -34.5,10.5 z"
       id="path38" />
    <path
       style="fill:#173aab;fill-opacity:1;fill-rule:nonzero;stroke:none"
       d="m 108.8,345 c 49.2,0.2 98.3,-0.3 147.5,0.3 29.3,2 47.7,32 43.8,59.5 -0.2,45.5 0.3,91 -0.3,136.5 -2,29.3 -32,47.7 -59.5,43.8 -45.5,-0.2 -91,0.3 -136.5,-0.3 -29.3,-2.1 -47.7,-32 -43.8,-59.5 0.2,-45.5 -0.3,-91 0.3,-136.5 2,-24.3 24.1,-44.3 48.5,-43.8 z"
       id="path40" />
    <path
       style="fill:#ffffff;fill-opacity:1;fill-rule:nonzero;stroke:none"
       d="m 179.4,534 c -36.8,2.4 -70.5,-30.2 -68,-67.2 -2.6,-37 28.9,-71.6 66.3,-70.7 35.3,-3.9 69.8,24.6 70.6,60.5 5.1,34.4 -18.1,77.4 -68.9,77.4 z m 0.6,-26.4 c 28.9,1.6 41.6,-32.2 34.7,-56.1 -2.7,-28.7 -43,-39.8 -60.5,-17.5 -19.7,23.5 -11,74.4 25.8,73.6 z"
       id="path42" />
  </g>
</svg>
