<?xml version="1.0" encoding="UTF-8" standalone="no"?>
<svg
   viewBox="0 0 96 77.999443"
   width="96"
   height="77.999443"
   version="1.1"
   id="svg1"
   xmlns="http://www.w3.org/2000/svg"
   xmlns:svg="http://www.w3.org/2000/svg">
  <defs
     id="defs1" />
  <!-- Cloud chat bubble with tail biased left -->
  <path
     d="m 15,35 c 0,-11.046 8.954,-20 20,-20 1.77,0 3.49,0.23 5.13,0.67 C 43.78,7.89 51.77,3 61,3 c 12.15,0 22,9.85 22,22 0,1.38 -0.11,2.73 -0.31,4.05 C 88.77,31.15 93,36.98 93,43.5 93,52.61 85.61,60 76.5,60 H 39 29 L 17,75 V 60 H 15 C 8,60 3,54 3,47 3,41 7,36 12.5,34.2 13,34.02 13.5,33.9 14,34 Z"
     fill="none"
     stroke="#000000"
     stroke-width="6"
     stroke-linejoin="round"
     stroke-linecap="round"
     id="path1" />
  <!-- “AI” text with adjusted position -->
  <text
     x="49"
     y="42"
     text-anchor="middle"
     dominant-baseline="middle"
     font-family="system-ui, '-apple-system', BlinkMacSystemFont, 'Segoe UI', sans-serif"
     font-size="32px"
     font-weight="700"
     fill="#000000"
     id="text1">AI</text>
</svg>
