<svg xmlns="http://www.w3.org/2000/svg" width="164" height="58.575" viewBox="0 0 164 58.575"><path d="M118.936 149c-12.138-3.36-20.995-13.597-20.914-26.187-1.391-17.606 14.673-37.337 42.661-28.693 11.616 3.585 18.519 15.711 18.184 27.469.777 20.564-19.265 32.99-39.93 27.411m18.185-34.924c-3.514-5.53-12.255-6.5-16.371-1.095-5.36 6.345-3.347 18.223 5.638 20.019 7.37 1.651 17.006-6.691 10.733-18.924M38 150.498c5.098-15.817 9.753-32.163 15.723-47.678 5.722-14.668 27.213-14.94 31.709 1.698 5.68 14.64 10.498 30.47 15.09 45.482-5.466-.038-12.882.122-18.985 0l-2.727-8.07-19.25.57c-.715 2.552-1.43 4.948-2.144 7.5-5.781.02-13.139-.013-19.416 0zM73.994 128c-1.285-5.325-3.088-11.258-4.67-16.5-1.488 5.105-3.284 11.279-4.324 16.5 2.664.057 5.833-.047 8.994 0m100.19 21c-6.288-1.55-10.726-6.521-10.696-12.955-.86-13.995-.352-28.031-.488-42.045h19v40h20v16c-9.271-.182-18.603.2-27.815-1" style="fill:#000" transform="translate(-38 -91.923)"/></svg>