<svg xmlns="http://www.w3.org/2000/svg" width="734.236" height="734.03" fill="none" viewBox="0 0 22.027 22.021"><path stroke="#000" stroke-linecap="round" stroke-linejoin="round" stroke-width="2" d="M4.02 14.014c-1.074.082-2.422-.054-2.848-1.235-.278-1.183-.104-2.423-.152-3.632.023-2.16-.052-4.324.053-6.481.12-1.159 1.338-1.775 2.405-1.649 2.879.003 5.758-.023 8.636.016 1.704.073 1.954 1.058 1.906 2.98m5.114 16.974c1.176.009 2.009-1.159 1.88-2.274 0-2.937.033-5.876-.021-8.813.009-1.176-1.158-2.009-2.274-1.88-2.937 0-5.876-.033-8.813.021-1.176-.009-2.009 1.158-1.88 2.274 0 2.937-.033 5.876.021 8.813-.009 1.176 1.159 2.009 2.274 1.88 2.937.006 5.876.031 8.813-.021"/></svg>