<svg xmlns="http://www.w3.org/2000/svg" width="570.968" height="539.737" viewBox="60 90.4 570.968 539.737"><path d="M464 140.1c-114.8 72.8-229.6 145.6-344.4 218.3-25.2-27-35.4-67.1-26.6-102.8 10.5-22.6 36-30.9 54.9-45.3 57-36.6 113.3-74.4 170.8-110.1C352 82.5 393.3 90.1 422 112.9c14 9.1 28 18.1 41.9 27.2z" style="fill:#1ea6fa;fill-opacity:1;fill-rule:nonzero;stroke:none" transform="translate(.52 -.028)"/><path d="M407.1 103.3c53.2 34.3 106.2 68.9 159.3 103.2-129.1 81.9-258.2 163.8-387.3 245.6-19.9-31.3-39.7-62.5-59.5-93.8 96.3-61.4 193.1-122 289-183.9 22.2-17.4 21.5-54.6-1.5-71z" style="fill:#1459d9;fill-opacity:1;fill-rule:nonzero;stroke:none" transform="translate(.52 -.028)"/><path d="M333.6 499c-51.5-15.6-103-31.3-154.5-46.9 111.1-70.7 222.7-140.6 333.4-211.8 29.3-16.3 10.6-66.8-3.8-71.1 35.3 23.1 71 45.5 106 69.1 21.8 18 13.8 47.5 15.3 72z" style="fill:#5e1eca;fill-opacity:1;fill-rule:nonzero;stroke:none" transform="translate(.52 -.028)"/><path d="M315.8 630.1c76.7-.3 153.4.6 230-.5 50.3-3.8 89.3-53 84.2-102.7V272.1c1.1 30.2-29 42.1-50.1 56-101 63.6-202.4 126.7-303.3 190.7-45.2 31.3-21.7 111.2 39.1 111.2z" style="fill:#0caeff;fill-opacity:1;fill-rule:nonzero;stroke:none" transform="translate(.52 -.028)"/><path fill="none" d="M315.77 630.05c76.673-.311 153.386.631 230.034-.483 50.268-3.814 89.315-53.02 84.165-102.685V272.14c1.053 30.212-29.004 42.053-50.07 56.029-100.607 63.27-201.397 126.26-301.89 189.704-34.506 23.038-32.758 79.836 2.566 101.427 10.31 7.004 22.741 10.78 35.195 10.75" style="fill:#0282f0;fill-opacity:0;fill-rule:nonzero;stroke:none" transform="translate(.52 -.028)"/><path d="M405.4 630c-77.1-.3-154.2.6-231.2-.5-50.3-3.8-89.3-53-84.2-102.7V271.9c-1.1 30.2 29 42 50 56 100.5 63.5 201.2 126.7 301.6 190.3 34.2 22.9 33.6 79.5-1.7 101.2-10.1 6.9-22.3 10.6-34.5 10.5z" style="fill:#47deff;fill-opacity:1;fill-rule:nonzero;stroke:none" transform="translate(.52 -.028)"/><path d="M108.8 345c49.2.2 98.3-.3 147.5.3 29.3 2 47.7 32 43.8 59.5-.2 45.5.3 91-.3 136.5-2 29.3-32 47.7-59.5 43.8-45.5-.2-91 .3-136.5-.3-29.3-2.1-47.7-32-43.8-59.5.2-45.5-.3-91 .3-136.5 2-24.3 24.1-44.3 48.5-43.8" style="fill:#173aab;fill-opacity:1;fill-rule:nonzero;stroke:none" transform="translate(.52 -.028)"/><path d="M179.4 534c-36.8 2.4-70.5-30.2-68-67.2-2.6-37 28.9-71.6 66.3-70.7 35.3-3.9 69.8 24.6 70.6 60.5 5.1 34.4-18.1 77.4-68.9 77.4m.6-26.4c28.9 1.6 41.6-32.2 34.7-56.1-2.7-28.7-43-39.8-60.5-17.5-19.7 23.5-11 74.4 25.8 73.6" style="fill:#fff;fill-opacity:1;fill-rule:nonzero;stroke:none" transform="translate(.52 -.028)"/></svg>