<svg xmlns="http://www.w3.org/2000/svg" viewBox="0 0 960 720" role="img" aria-label="Stylized portrait of Jack Featherstone" preserveAspectRatio="xMidYMid slice">
  <defs>
    <linearGradient id="bg" x1="0%" y1="0%" x2="100%" y2="100%">
      <stop offset="0%" stop-color="#0f172a" />
      <stop offset="60%" stop-color="#172554" />
      <stop offset="100%" stop-color="#1e3a8a" />
    </linearGradient>
  </defs>
  <rect width="960" height="720" fill="url(#bg)" />
  <circle cx="480" cy="280" r="180" fill="#1e293b" opacity="0.85" />
  <circle cx="480" cy="270" r="120" fill="#fcd34d" opacity="0.15" />
  <path d="M480 210c70 0 120 60 120 140s-50 130-120 130-120-50-120-130 50-140 120-140z" fill="#fef3c7" opacity="0.8" />
  <path d="M430 235c25-30 75-30 100 0 10 12 15 30-10 40-15 6-35 6-50 0-25-10-20-28-10-40z" fill="#1f2937" opacity="0.5" />
  <rect x="340" y="360" width="280" height="200" rx="120" fill="#fef3c7" opacity="0.65" />
  <rect x="350" y="400" width="260" height="160" rx="80" fill="#0f172a" opacity="0.65" />
  <text x="480" y="620" text-anchor="middle" font-family="'Ubuntu', 'Segoe UI', sans-serif" font-size="36" fill="#f8fafc" opacity="0.85">Portrait placeholder</text>
</svg>
